<svg xmlns="http://www.w3.org/2000/svg" xmlns:xlink="http://www.w3.org/1999/xlink" id="body_25" preserveAspectRatio="xMinYMin meet" viewBox="0 0 688 972"><defs><clipPath id="1"><path id="" clip-rule="evenodd" d="M0 729L0 0L0 0L516 0L516 0L516 729L516 729L0 729z" /></clipPath><clipPath id="2"><path id="" clip-rule="evenodd" d="M452.16 40.85999L459.3 40.85999L459.3 40.85999L459.3 30.65997L459.3 30.65997L452.16 30.65997z" /></clipPath></defs><g transform="matrix(1.333333 0 0 1.333333 0 0)"><g clip-path="url(#1)"><path id="14" transform="matrix(1 0 0 -1 0 729)" d="M55.2 685.98L460.74 685.98L460.74 686.46L55.2 686.46z" stroke="none" fill="#000000" fill-rule="nonzero" /><path id="15" transform="matrix(1 0 0 -1 0 729)" d="M55.2 686.94L460.74 686.94L460.74 687.42L55.2 687.42z" stroke="none" fill="#000000" fill-rule="nonzero" /><g clip-path="url(#2)"></g><path id="864" transform="matrix(1 0 0 -1 0 729)" d="M59.04 180.84L141.48 180.84L141.48 181.8L59.04 181.8z" stroke="none" fill="#000000" fill-rule="nonzero" /><path id="865" transform="matrix(1 0 0 -1 0 729)" d="M141.48 180.78L141.96 180.78L141.96 180.84L141.48 180.84z" stroke="none" fill="#000000" fill-rule="nonzero" /><path id="866" transform="matrix(1 0 0 -1 0 729)" d="M141.48 180.84L142.44 180.84L142.44 181.8L141.48 181.8z" stroke="none" fill="#000000" fill-rule="nonzero" /><path id="867" transform="matrix(1 0 0 -1 0 729)" d="M142.44 180.84L456.84 180.84L456.84 181.8L142.44 181.8z" stroke="none" fill="#000000" fill-rule="nonzero" /><path id="868" transform="matrix(1 0 0 -1 0 729)" d="M141.48 164.16L141.96 164.16L141.96 180.78L141.48 180.78z" stroke="none" fill="#000000" fill-rule="nonzero" /><path id="898" transform="matrix(1 0 0 -1 0 729)" d="M141.48 163.68L141.96 163.68L141.96 164.16L141.48 164.16z" stroke="none" fill="#000000" fill-rule="nonzero" /><path id="899" transform="matrix(1 0 0 -1 0 729)" d="M141.96 163.68L179.4 163.68L179.4 164.16L141.96 164.16z" stroke="none" fill="#000000" fill-rule="nonzero" /><path id="900" transform="matrix(1 0 0 -1 0 729)" d="M179.4 163.68L179.88 163.68L179.88 164.16L179.4 164.16z" stroke="none" fill="#000000" fill-rule="nonzero" /><path id="901" transform="matrix(1 0 0 -1 0 729)" d="M179.88 163.68L217.38 163.68L217.38 164.16L179.88 164.16z" stroke="none" fill="#000000" fill-rule="nonzero" /><path id="902" transform="matrix(1 0 0 -1 0 729)" d="M217.38 163.68L217.86 163.68L217.86 164.16L217.38 164.16z" stroke="none" fill="#000000" fill-rule="nonzero" /><path id="903" transform="matrix(1 0 0 -1 0 729)" d="M217.86 163.68L255.24 163.68L255.24 164.16L217.86 164.16z" stroke="none" fill="#000000" fill-rule="nonzero" /><path id="904" transform="matrix(1 0 0 -1 0 729)" d="M255.24 163.68L255.72 163.68L255.72 164.16L255.24 164.16z" stroke="none" fill="#000000" fill-rule="nonzero" /><path id="905" transform="matrix(1 0 0 -1 0 729)" d="M255.72 163.68L293.16 163.68L293.16 164.16L255.72 164.16z" stroke="none" fill="#000000" fill-rule="nonzero" /><path id="906" transform="matrix(1 0 0 -1 0 729)" d="M293.16 163.68L293.64 163.68L293.64 164.16L293.16 164.16z" stroke="none" fill="#000000" fill-rule="nonzero" /><path id="907" transform="matrix(1 0 0 -1 0 729)" d="M293.64 163.68L331.08 163.68L331.08 164.16L293.64 164.16z" stroke="none" fill="#000000" fill-rule="nonzero" /><path id="908" transform="matrix(1 0 0 -1 0 729)" d="M331.08 163.68L331.56 163.68L331.56 164.16L331.08 164.16z" stroke="none" fill="#000000" fill-rule="nonzero" /><path id="909" transform="matrix(1 0 0 -1 0 729)" d="M331.56 163.68L368.94 163.68L368.94 164.16L331.56 164.16z" stroke="none" fill="#000000" fill-rule="nonzero" /><path id="910" transform="matrix(1 0 0 -1 0 729)" d="M368.94 163.68L369.42 163.68L369.42 164.16L368.94 164.16z" stroke="none" fill="#000000" fill-rule="nonzero" /><path id="911" transform="matrix(1 0 0 -1 0 729)" d="M369.42 163.68L406.86 163.68L406.86 164.16L369.42 164.16z" stroke="none" fill="#000000" fill-rule="nonzero" /><path id="912" transform="matrix(1 0 0 -1 0 729)" d="M406.86 163.68L407.34 163.68L407.34 164.16L406.86 164.16z" stroke="none" fill="#000000" fill-rule="nonzero" /><path id="913" transform="matrix(1 0 0 -1 0 729)" d="M407.34 163.68L456.84 163.68L456.84 164.16L407.34 164.16z" stroke="none" fill="#000000" fill-rule="nonzero" /><path id="914" transform="matrix(1 0 0 -1 0 729)" d="M141.48 147.06L141.96 147.06L141.96 163.68L141.48 163.68z" stroke="none" fill="#000000" fill-rule="nonzero" /><path id="915" transform="matrix(1 0 0 -1 0 729)" d="M179.4 147.06L179.88 147.06L179.88 163.68L179.4 163.68z" stroke="none" fill="#000000" fill-rule="nonzero" /><path id="916" transform="matrix(1 0 0 -1 0 729)" d="M217.38 147.06L217.86 147.06L217.86 163.68L217.38 163.68z" stroke="none" fill="#000000" fill-rule="nonzero" /><path id="917" transform="matrix(1 0 0 -1 0 729)" d="M255.24 147.06L255.72 147.06L255.72 163.68L255.24 163.68z" stroke="none" fill="#000000" fill-rule="nonzero" /><path id="918" transform="matrix(1 0 0 -1 0 729)" d="M293.16 147.06L293.64 147.06L293.64 163.68L293.16 163.68z" stroke="none" fill="#000000" fill-rule="nonzero" /><path id="919" transform="matrix(1 0 0 -1 0 729)" d="M331.08 147.06L331.56 147.06L331.56 163.68L331.08 163.68z" stroke="none" fill="#000000" fill-rule="nonzero" /><path id="920" transform="matrix(1 0 0 -1 0 729)" d="M368.94 147.06L369.42 147.06L369.42 163.68L368.94 163.68z" stroke="none" fill="#000000" fill-rule="nonzero" /><path id="921" transform="matrix(1 0 0 -1 0 729)" d="M406.86 147.06L407.34 147.06L407.34 163.68L406.86 163.68z" stroke="none" fill="#000000" fill-rule="nonzero" /><path id="1019" transform="matrix(1 0 0 -1 0 729)" d="M58.68 146.58L59.04 146.58L59.04 147.06L58.68 147.06z" stroke="none" fill="#000000" fill-rule="nonzero" /><path id="1020" transform="matrix(1 0 0 -1 0 729)" d="M59.04 146.58L59.52 146.58L59.52 147.06L59.04 147.06z" stroke="none" fill="#000000" fill-rule="nonzero" /><path id="1021" transform="matrix(1 0 0 -1 0 729)" d="M59.52 146.58L141.4799 146.58L141.4799 147.06L59.52 147.06z" stroke="none" fill="#000000" fill-rule="nonzero" /><path id="1022" transform="matrix(1 0 0 -1 0 729)" d="M141.48 146.58L141.96 146.58L141.96 147.06L141.48 147.06z" stroke="none" fill="#000000" fill-rule="nonzero" /><path id="1023" transform="matrix(1 0 0 -1 0 729)" d="M141.96 146.58L179.4 146.58L179.4 147.06L141.96 147.06z" stroke="none" fill="#000000" fill-rule="nonzero" /><path id="1024" transform="matrix(1 0 0 -1 0 729)" d="M179.4 146.58L179.88 146.58L179.88 147.06L179.4 147.06z" stroke="none" fill="#000000" fill-rule="nonzero" /><path id="1025" transform="matrix(1 0 0 -1 0 729)" d="M179.88 146.58L217.38 146.58L217.38 147.06L179.88 147.06z" stroke="none" fill="#000000" fill-rule="nonzero" /><path id="1026" transform="matrix(1 0 0 -1 0 729)" d="M217.38 146.58L217.86 146.58L217.86 147.06L217.38 147.06z" stroke="none" fill="#000000" fill-rule="nonzero" /><path id="1027" transform="matrix(1 0 0 -1 0 729)" d="M217.86 146.58L255.24 146.58L255.24 147.06L217.86 147.06z" stroke="none" fill="#000000" fill-rule="nonzero" /><path id="1028" transform="matrix(1 0 0 -1 0 729)" d="M255.24 146.58L255.72 146.58L255.72 147.06L255.24 147.06z" stroke="none" fill="#000000" fill-rule="nonzero" /><path id="1029" transform="matrix(1 0 0 -1 0 729)" d="M255.72 146.58L293.16 146.58L293.16 147.06L255.72 147.06z" stroke="none" fill="#000000" fill-rule="nonzero" /><path id="1030" transform="matrix(1 0 0 -1 0 729)" d="M293.16 146.58L293.64 146.58L293.64 147.06L293.16 147.06z" stroke="none" fill="#000000" fill-rule="nonzero" /><path id="1031" transform="matrix(1 0 0 -1 0 729)" d="M293.64 146.58L331.08 146.58L331.08 147.06L293.64 147.06z" stroke="none" fill="#000000" fill-rule="nonzero" /><path id="1032" transform="matrix(1 0 0 -1 0 729)" d="M331.08 146.58L331.56 146.58L331.56 147.06L331.08 147.06z" stroke="none" fill="#000000" fill-rule="nonzero" /><path id="1033" transform="matrix(1 0 0 -1 0 729)" d="M331.56 146.58L368.94 146.58L368.94 147.06L331.56 147.06z" stroke="none" fill="#000000" fill-rule="nonzero" /><path id="1034" transform="matrix(1 0 0 -1 0 729)" d="M368.94 146.58L369.42 146.58L369.42 147.06L368.94 147.06z" stroke="none" fill="#000000" fill-rule="nonzero" /><path id="1035" transform="matrix(1 0 0 -1 0 729)" d="M369.42 146.58L406.86 146.58L406.86 147.06L369.42 147.06z" stroke="none" fill="#000000" fill-rule="nonzero" /><path id="1036" transform="matrix(1 0 0 -1 0 729)" d="M406.86 146.58L407.34 146.58L407.34 147.06L406.86 147.06z" stroke="none" fill="#000000" fill-rule="nonzero" /><path id="1037" transform="matrix(1 0 0 -1 0 729)" d="M407.34 146.58L456.84 146.58L456.84 147.06L407.34 147.06z" stroke="none" fill="#000000" fill-rule="nonzero" /><path id="1038" transform="matrix(1 0 0 -1 0 729)" d="M57.96 45.96L141.48 45.96L141.48 46.92L57.96 46.92z" stroke="none" fill="#000000" fill-rule="nonzero" /><path id="1039" transform="matrix(1 0 0 -1 0 729)" d="M141.48 46.92L141.96 46.92L141.96 146.58L141.48 146.58z" stroke="none" fill="#000000" fill-rule="nonzero" /><path id="1040" transform="matrix(1 0 0 -1 0 729)" d="M141.48 45.96L142.44 45.96L142.44 46.92L141.48 46.92z" stroke="none" fill="#000000" fill-rule="nonzero" /><path id="1041" transform="matrix(1 0 0 -1 0 729)" d="M142.44 45.96L179.4 45.96L179.4 46.92L142.44 46.92z" stroke="none" fill="#000000" fill-rule="nonzero" /><path id="1042" transform="matrix(1 0 0 -1 0 729)" d="M179.4 46.92L179.88 46.92L179.88 146.58L179.4 146.58z" stroke="none" fill="#000000" fill-rule="nonzero" /><path id="1043" transform="matrix(1 0 0 -1 0 729)" d="M179.4 45.96L180.36 45.96L180.36 46.92L179.4 46.92z" stroke="none" fill="#000000" fill-rule="nonzero" /><path id="1044" transform="matrix(1 0 0 -1 0 729)" d="M180.36 45.96L217.38 45.96L217.38 46.92L180.36 46.92z" stroke="none" fill="#000000" fill-rule="nonzero" /><path id="1045" transform="matrix(1 0 0 -1 0 729)" d="M217.38 46.92L217.86 46.92L217.86 146.58L217.38 146.58z" stroke="none" fill="#000000" fill-rule="nonzero" /><path id="1046" transform="matrix(1 0 0 -1 0 729)" d="M217.38 45.96L218.34 45.96L218.34 46.92L217.38 46.92z" stroke="none" fill="#000000" fill-rule="nonzero" /><path id="1047" transform="matrix(1 0 0 -1 0 729)" d="M218.34 45.96L255.24 45.96L255.24 46.92L218.34 46.92z" stroke="none" fill="#000000" fill-rule="nonzero" /><path id="1048" transform="matrix(1 0 0 -1 0 729)" d="M255.24 46.92L255.72 46.92L255.72 146.58L255.24 146.58z" stroke="none" fill="#000000" fill-rule="nonzero" /><path id="1049" transform="matrix(1 0 0 -1 0 729)" d="M255.24 45.96L256.2 45.96L256.2 46.92L255.24 46.92z" stroke="none" fill="#000000" fill-rule="nonzero" /><path id="1050" transform="matrix(1 0 0 -1 0 729)" d="M256.2 45.96L293.16 45.96L293.16 46.92L256.2 46.92z" stroke="none" fill="#000000" fill-rule="nonzero" /><path id="1051" transform="matrix(1 0 0 -1 0 729)" d="M293.16 46.92L293.64 46.92L293.64 146.58L293.16 146.58z" stroke="none" fill="#000000" fill-rule="nonzero" /><path id="1052" transform="matrix(1 0 0 -1 0 729)" d="M293.16 45.96L294.12 45.96L294.12 46.92L293.16 46.92z" stroke="none" fill="#000000" fill-rule="nonzero" /><path id="1053" transform="matrix(1 0 0 -1 0 729)" d="M294.12 45.96L331.08 45.96L331.08 46.92L294.12 46.92z" stroke="none" fill="#000000" fill-rule="nonzero" /><path id="1054" transform="matrix(1 0 0 -1 0 729)" d="M331.08 46.92L331.56 46.92L331.56 146.58L331.08 146.58z" stroke="none" fill="#000000" fill-rule="nonzero" /><path id="1055" transform="matrix(1 0 0 -1 0 729)" d="M331.08 45.96L332.04 45.96L332.04 46.92L331.08 46.92z" stroke="none" fill="#000000" fill-rule="nonzero" /><path id="1056" transform="matrix(1 0 0 -1 0 729)" d="M332.04 45.96L368.94 45.96L368.94 46.92L332.04 46.92z" stroke="none" fill="#000000" fill-rule="nonzero" /><path id="1057" transform="matrix(1 0 0 -1 0 729)" d="M368.94 46.92L369.42 46.92L369.42 146.58L368.94 146.58z" stroke="none" fill="#000000" fill-rule="nonzero" /><path id="1058" transform="matrix(1 0 0 -1 0 729)" d="M368.94 45.96L369.9 45.96L369.9 46.92L368.94 46.92z" stroke="none" fill="#000000" fill-rule="nonzero" /><path id="1059" transform="matrix(1 0 0 -1 0 729)" d="M369.9 45.96L406.86 45.96L406.86 46.92L369.9 46.92z" stroke="none" fill="#000000" fill-rule="nonzero" /><path id="1060" transform="matrix(1 0 0 -1 0 729)" d="M406.86 46.92L407.34 46.92L407.34 146.58L406.86 146.58z" stroke="none" fill="#000000" fill-rule="nonzero" /><path id="1061" transform="matrix(1 0 0 -1 0 729)" d="M406.86 45.96L407.82 45.96L407.82 46.92L406.86 46.92z" stroke="none" fill="#000000" fill-rule="nonzero" /><path id="1062" transform="matrix(1 0 0 -1 0 729)" d="M407.82 45.96L457.2 45.96L457.2 46.92L407.82 46.92z" stroke="none" fill="#000000" fill-rule="nonzero" /></g></g></svg>