<svg xmlns="http://www.w3.org/2000/svg" xmlns:xlink="http://www.w3.org/1999/xlink" id="body_22" preserveAspectRatio="xMinYMin meet" viewBox="0 0 688 972"><defs><clipPath id="1"><path id="" clip-rule="evenodd" d="M0 729L0 0L0 0L516 0L516 0L516 729L516 729L0 729z" /></clipPath><clipPath id="2"><path id="" clip-rule="evenodd" d="M83.58 40.85999L90.78 40.85999L90.78 40.85999L90.78 30.65997L90.78 30.65997L83.58 30.65997z" /></clipPath><clipPath id="3"><path id="" clip-rule="evenodd" d="M251.4 91.02002L259.86 91.02002L259.86 91.02002L259.86 80.94L259.86 80.94L251.4 80.94z" /></clipPath></defs><g transform="matrix(1.333333 0 0 1.333333 0 0)"><g clip-path="url(#1)"><path id="11" transform="matrix(1 0 0 -1 0 729)" d="M55.2 685.98L460.74 685.98L460.74 686.46L55.2 686.46z" stroke="none" fill="#000000" fill-rule="nonzero" /><path id="12" transform="matrix(1 0 0 -1 0 729)" d="M55.2 686.94L460.74 686.94L460.74 687.42L55.2 687.42z" stroke="none" fill="#000000" fill-rule="nonzero" /><g clip-path="url(#2)"></g><g clip-path="url(#3)"></g><path id="68" transform="matrix(1 0 0 -1 0 729)" d="M57.48 653.94L113.34 653.94L113.34 654.9L57.48 654.9z" stroke="none" fill="#000000" fill-rule="nonzero" /><path id="69" transform="matrix(1 0 0 -1 0 729)" d="M113.34 653.88L113.82 653.88L113.82 653.94L113.34 653.94z" stroke="none" fill="#000000" fill-rule="nonzero" /><path id="70" transform="matrix(1 0 0 -1 0 729)" d="M113.34 653.94L114.3 653.94L114.3 654.9L113.34 654.9z" stroke="none" fill="#000000" fill-rule="nonzero" /><path id="71" transform="matrix(1 0 0 -1 0 729)" d="M114.3 653.94L160.2 653.94L160.2 654.9L114.3 654.9z" stroke="none" fill="#000000" fill-rule="nonzero" /><path id="72" transform="matrix(1 0 0 -1 0 729)" d="M160.2 653.88L160.68 653.88L160.68 653.94L160.2 653.94z" stroke="none" fill="#000000" fill-rule="nonzero" /><path id="73" transform="matrix(1 0 0 -1 0 729)" d="M160.2 653.94L161.16 653.94L161.16 654.9L160.2 654.9z" stroke="none" fill="#000000" fill-rule="nonzero" /><path id="74" transform="matrix(1 0 0 -1 0 729)" d="M161.16 653.94L207.18 653.94L207.18 654.9L161.16 654.9z" stroke="none" fill="#000000" fill-rule="nonzero" /><path id="75" transform="matrix(1 0 0 -1 0 729)" d="M207.18 653.88L207.66 653.88L207.66 653.94L207.18 653.94z" stroke="none" fill="#000000" fill-rule="nonzero" /><path id="76" transform="matrix(1 0 0 -1 0 729)" d="M207.18 653.94L208.14 653.94L208.14 654.9L207.18 654.9z" stroke="none" fill="#000000" fill-rule="nonzero" /><path id="77" transform="matrix(1 0 0 -1 0 729)" d="M208.14 653.94L259.86 653.94L259.86 654.9L208.14 654.9z" stroke="none" fill="#000000" fill-rule="nonzero" /><path id="78" transform="matrix(1 0 0 -1 0 729)" d="M260.82 653.88L261.3 653.88L261.3 653.94L260.82 653.94z" stroke="none" fill="#000000" fill-rule="nonzero" /><path id="79" transform="matrix(1 0 0 -1 0 729)" d="M259.86 653.88L260.34 653.88L260.34 653.94L259.86 653.94z" stroke="none" fill="#000000" fill-rule="nonzero" /><path id="80" transform="matrix(1 0 0 -1 0 729)" d="M259.86 653.94L260.82 653.94L260.82 654.9L259.86 654.9z" stroke="none" fill="#000000" fill-rule="nonzero" /><path id="81" transform="matrix(1 0 0 -1 0 729)" d="M260.82 653.94L307.26 653.94L307.26 654.9L260.82 654.9z" stroke="none" fill="#000000" fill-rule="nonzero" /><path id="82" transform="matrix(1 0 0 -1 0 729)" d="M307.26 653.88L307.74 653.88L307.74 653.94L307.26 653.94z" stroke="none" fill="#000000" fill-rule="nonzero" /><path id="83" transform="matrix(1 0 0 -1 0 729)" d="M307.26 653.94L308.22 653.94L308.22 654.9L307.26 654.9z" stroke="none" fill="#000000" fill-rule="nonzero" /><path id="84" transform="matrix(1 0 0 -1 0 729)" d="M308.22 653.94L354.24 653.94L354.24 654.9L308.22 654.9z" stroke="none" fill="#000000" fill-rule="nonzero" /><path id="85" transform="matrix(1 0 0 -1 0 729)" d="M354.24 653.88L354.72 653.88L354.72 653.94L354.24 653.94z" stroke="none" fill="#000000" fill-rule="nonzero" /><path id="86" transform="matrix(1 0 0 -1 0 729)" d="M354.24 653.94L355.2 653.94L355.2 654.9L354.24 654.9z" stroke="none" fill="#000000" fill-rule="nonzero" /><path id="87" transform="matrix(1 0 0 -1 0 729)" d="M355.2 653.94L401.16 653.94L401.16 654.9L355.2 654.9z" stroke="none" fill="#000000" fill-rule="nonzero" /><path id="88" transform="matrix(1 0 0 -1 0 729)" d="M401.16 653.88L401.64 653.88L401.64 653.94L401.16 653.94z" stroke="none" fill="#000000" fill-rule="nonzero" /><path id="89" transform="matrix(1 0 0 -1 0 729)" d="M401.16 653.94L402.12 653.94L402.12 654.9L401.16 654.9z" stroke="none" fill="#000000" fill-rule="nonzero" /><path id="90" transform="matrix(1 0 0 -1 0 729)" d="M402.12 653.94L458.04 653.94L458.04 654.9L402.12 654.9z" stroke="none" fill="#000000" fill-rule="nonzero" /><path id="91" transform="matrix(1 0 0 -1 0 729)" d="M113.34 637.26L113.82 637.26L113.82 653.88L113.34 653.88z" stroke="none" fill="#000000" fill-rule="nonzero" /><path id="92" transform="matrix(1 0 0 -1 0 729)" d="M160.2 637.26L160.68 637.26L160.68 653.88L160.2 653.88z" stroke="none" fill="#000000" fill-rule="nonzero" /><path id="93" transform="matrix(1 0 0 -1 0 729)" d="M207.18 637.26L207.66 637.26L207.66 653.88L207.18 653.88z" stroke="none" fill="#000000" fill-rule="nonzero" /><path id="94" transform="matrix(1 0 0 -1 0 729)" d="M260.82 637.26L261.3 637.26L261.3 653.88L260.82 653.88z" stroke="none" fill="#000000" fill-rule="nonzero" /><path id="95" transform="matrix(1 0 0 -1 0 729)" d="M259.86 637.26L260.34 637.26L260.34 653.88L259.86 653.88z" stroke="none" fill="#000000" fill-rule="nonzero" /><path id="96" transform="matrix(1 0 0 -1 0 729)" d="M307.26 637.26L307.74 637.26L307.74 653.88L307.26 653.88z" stroke="none" fill="#000000" fill-rule="nonzero" /><path id="97" transform="matrix(1 0 0 -1 0 729)" d="M354.24 637.26L354.72 637.26L354.72 653.88L354.24 653.88z" stroke="none" fill="#000000" fill-rule="nonzero" /><path id="98" transform="matrix(1 0 0 -1 0 729)" d="M401.16 637.26L401.64 637.26L401.64 653.88L401.16 653.88z" stroke="none" fill="#000000" fill-rule="nonzero" /><path id="114" transform="matrix(1 0 0 -1 0 729)" d="M57.48 636.78L113.34 636.78L113.34 637.26L57.48 637.26z" stroke="none" fill="#000000" fill-rule="nonzero" /><path id="115" transform="matrix(1 0 0 -1 0 729)" d="M113.34 636.78L113.82 636.78L113.82 637.26L113.34 637.26z" stroke="none" fill="#000000" fill-rule="nonzero" /><path id="116" transform="matrix(1 0 0 -1 0 729)" d="M113.82 636.78L160.2 636.78L160.2 637.26L113.82 637.26z" stroke="none" fill="#000000" fill-rule="nonzero" /><path id="117" transform="matrix(1 0 0 -1 0 729)" d="M160.2 636.78L160.68 636.78L160.68 637.26L160.2 637.26z" stroke="none" fill="#000000" fill-rule="nonzero" /><path id="118" transform="matrix(1 0 0 -1 0 729)" d="M160.68 636.78L207.18 636.78L207.18 637.26L160.68 637.26z" stroke="none" fill="#000000" fill-rule="nonzero" /><path id="119" transform="matrix(1 0 0 -1 0 729)" d="M207.18 636.78L207.66 636.78L207.66 637.26L207.18 637.26z" stroke="none" fill="#000000" fill-rule="nonzero" /><path id="120" transform="matrix(1 0 0 -1 0 729)" d="M207.66 636.78L259.86 636.78L259.86 637.26L207.66 637.26z" stroke="none" fill="#000000" fill-rule="nonzero" /><path id="121" transform="matrix(1 0 0 -1 0 729)" d="M260.82 636.78L261.3 636.78L261.3 637.26L260.82 637.26z" stroke="none" fill="#000000" fill-rule="nonzero" /><path id="122" transform="matrix(1 0 0 -1 0 729)" d="M259.86 636.78L260.34 636.78L260.34 637.26L259.86 637.26z" stroke="none" fill="#000000" fill-rule="nonzero" /><path id="123" transform="matrix(1 0 0 -1 0 729)" d="M261.3 636.78L307.26 636.78L307.26 637.26L261.3 637.26z" stroke="none" fill="#000000" fill-rule="nonzero" /><path id="124" transform="matrix(1 0 0 -1 0 729)" d="M307.26 636.78L307.74 636.78L307.74 637.26L307.26 637.26z" stroke="none" fill="#000000" fill-rule="nonzero" /><path id="125" transform="matrix(1 0 0 -1 0 729)" d="M307.74 636.78L354.24 636.78L354.24 637.26L307.74 637.26z" stroke="none" fill="#000000" fill-rule="nonzero" /><path id="126" transform="matrix(1 0 0 -1 0 729)" d="M354.24 636.78L354.72 636.78L354.72 637.26L354.24 637.26z" stroke="none" fill="#000000" fill-rule="nonzero" /><path id="127" transform="matrix(1 0 0 -1 0 729)" d="M354.72 636.78L401.16 636.78L401.16 637.26L354.72 637.26z" stroke="none" fill="#000000" fill-rule="nonzero" /><path id="128" transform="matrix(1 0 0 -1 0 729)" d="M401.16 636.78L401.64 636.78L401.64 637.26L401.16 637.26z" stroke="none" fill="#000000" fill-rule="nonzero" /><path id="129" transform="matrix(1 0 0 -1 0 729)" d="M401.64 636.78L458.04 636.78L458.04 637.26L401.64 637.26z" stroke="none" fill="#000000" fill-rule="nonzero" /><path id="130" transform="matrix(1 0 0 -1 0 729)" d="M113.34 620.16L113.82 620.16L113.82 636.78L113.34 636.78z" stroke="none" fill="#000000" fill-rule="nonzero" /><path id="131" transform="matrix(1 0 0 -1 0 729)" d="M160.2 620.16L160.68 620.16L160.68 636.78L160.2 636.78z" stroke="none" fill="#000000" fill-rule="nonzero" /><path id="132" transform="matrix(1 0 0 -1 0 729)" d="M207.18 620.16L207.66 620.16L207.66 636.78L207.18 636.78z" stroke="none" fill="#000000" fill-rule="nonzero" /><path id="133" transform="matrix(1 0 0 -1 0 729)" d="M260.82 620.16L261.3 620.16L261.3 636.78L260.82 636.78z" stroke="none" fill="#000000" fill-rule="nonzero" /><path id="134" transform="matrix(1 0 0 -1 0 729)" d="M259.86 620.16L260.34 620.16L260.34 636.78L259.86 636.78z" stroke="none" fill="#000000" fill-rule="nonzero" /><path id="135" transform="matrix(1 0 0 -1 0 729)" d="M307.26 620.16L307.74 620.16L307.74 636.78L307.26 636.78z" stroke="none" fill="#000000" fill-rule="nonzero" /><path id="136" transform="matrix(1 0 0 -1 0 729)" d="M354.24 620.16L354.72 620.16L354.72 636.78L354.24 636.78z" stroke="none" fill="#000000" fill-rule="nonzero" /><path id="137" transform="matrix(1 0 0 -1 0 729)" d="M401.16 620.16L401.64 620.16L401.64 636.78L401.16 636.78z" stroke="none" fill="#000000" fill-rule="nonzero" /><path id="153" transform="matrix(1 0 0 -1 0 729)" d="M57.48 619.68L113.34 619.68L113.34 620.16L57.48 620.16z" stroke="none" fill="#000000" fill-rule="nonzero" /><path id="154" transform="matrix(1 0 0 -1 0 729)" d="M113.34 619.68L113.82 619.68L113.82 620.16L113.34 620.16z" stroke="none" fill="#000000" fill-rule="nonzero" /><path id="155" transform="matrix(1 0 0 -1 0 729)" d="M113.82 619.68L160.2 619.68L160.2 620.16L113.82 620.16z" stroke="none" fill="#000000" fill-rule="nonzero" /><path id="156" transform="matrix(1 0 0 -1 0 729)" d="M160.2 619.68L160.68 619.68L160.68 620.16L160.2 620.16z" stroke="none" fill="#000000" fill-rule="nonzero" /><path id="157" transform="matrix(1 0 0 -1 0 729)" d="M160.68 619.68L207.18 619.68L207.18 620.16L160.68 620.16z" stroke="none" fill="#000000" fill-rule="nonzero" /><path id="158" transform="matrix(1 0 0 -1 0 729)" d="M207.18 619.68L207.66 619.68L207.66 620.16L207.18 620.16z" stroke="none" fill="#000000" fill-rule="nonzero" /><path id="159" transform="matrix(1 0 0 -1 0 729)" d="M207.66 619.68L259.86 619.68L259.86 620.16L207.66 620.16z" stroke="none" fill="#000000" fill-rule="nonzero" /><path id="160" transform="matrix(1 0 0 -1 0 729)" d="M260.82 619.68L261.3 619.68L261.3 620.16L260.82 620.16z" stroke="none" fill="#000000" fill-rule="nonzero" /><path id="161" transform="matrix(1 0 0 -1 0 729)" d="M259.86 619.68L260.34 619.68L260.34 620.16L259.86 620.16z" stroke="none" fill="#000000" fill-rule="nonzero" /><path id="162" transform="matrix(1 0 0 -1 0 729)" d="M261.3 619.68L307.26 619.68L307.26 620.16L261.3 620.16z" stroke="none" fill="#000000" fill-rule="nonzero" /><path id="163" transform="matrix(1 0 0 -1 0 729)" d="M307.26 619.68L307.74 619.68L307.74 620.16L307.26 620.16z" stroke="none" fill="#000000" fill-rule="nonzero" /><path id="164" transform="matrix(1 0 0 -1 0 729)" d="M307.74 619.68L354.24 619.68L354.24 620.16L307.74 620.16z" stroke="none" fill="#000000" fill-rule="nonzero" /><path id="165" transform="matrix(1 0 0 -1 0 729)" d="M354.24 619.68L354.72 619.68L354.72 620.16L354.24 620.16z" stroke="none" fill="#000000" fill-rule="nonzero" /><path id="166" transform="matrix(1 0 0 -1 0 729)" d="M354.72 619.68L401.16 619.68L401.16 620.16L354.72 620.16z" stroke="none" fill="#000000" fill-rule="nonzero" /><path id="167" transform="matrix(1 0 0 -1 0 729)" d="M401.16 619.68L401.64 619.68L401.64 620.16L401.16 620.16z" stroke="none" fill="#000000" fill-rule="nonzero" /><path id="168" transform="matrix(1 0 0 -1 0 729)" d="M401.64 619.68L458.04 619.68L458.04 620.16L401.64 620.16z" stroke="none" fill="#000000" fill-rule="nonzero" /><path id="169" transform="matrix(1 0 0 -1 0 729)" d="M113.34 603.06L113.82 603.06L113.82 619.68L113.34 619.68z" stroke="none" fill="#000000" fill-rule="nonzero" /><path id="170" transform="matrix(1 0 0 -1 0 729)" d="M160.2 603.06L160.68 603.06L160.68 619.68L160.2 619.68z" stroke="none" fill="#000000" fill-rule="nonzero" /><path id="171" transform="matrix(1 0 0 -1 0 729)" d="M207.18 603.06L207.66 603.06L207.66 619.68L207.18 619.68z" stroke="none" fill="#000000" fill-rule="nonzero" /><path id="172" transform="matrix(1 0 0 -1 0 729)" d="M260.82 603.06L261.3 603.06L261.3 619.68L260.82 619.68z" stroke="none" fill="#000000" fill-rule="nonzero" /><path id="173" transform="matrix(1 0 0 -1 0 729)" d="M259.86 603.06L260.34 603.06L260.34 619.68L259.86 619.68z" stroke="none" fill="#000000" fill-rule="nonzero" /><path id="174" transform="matrix(1 0 0 -1 0 729)" d="M307.26 603.06L307.74 603.06L307.74 619.68L307.26 619.68z" stroke="none" fill="#000000" fill-rule="nonzero" /><path id="175" transform="matrix(1 0 0 -1 0 729)" d="M354.24 603.06L354.72 603.06L354.72 619.68L354.24 619.68z" stroke="none" fill="#000000" fill-rule="nonzero" /><path id="176" transform="matrix(1 0 0 -1 0 729)" d="M401.16 603.06L401.64 603.06L401.64 619.68L401.16 619.68z" stroke="none" fill="#000000" fill-rule="nonzero" /><path id="193" transform="matrix(1 0 0 -1 0 729)" d="M57.48 602.58L113.34 602.58L113.34 603.06L57.48 603.06z" stroke="none" fill="#000000" fill-rule="nonzero" /><path id="194" transform="matrix(1 0 0 -1 0 729)" d="M113.34 602.58L113.82 602.58L113.82 603.06L113.34 603.06z" stroke="none" fill="#000000" fill-rule="nonzero" /><path id="195" transform="matrix(1 0 0 -1 0 729)" d="M113.82 602.58L160.2 602.58L160.2 603.06L113.82 603.06z" stroke="none" fill="#000000" fill-rule="nonzero" /><path id="196" transform="matrix(1 0 0 -1 0 729)" d="M160.2 602.58L160.68 602.58L160.68 603.06L160.2 603.06z" stroke="none" fill="#000000" fill-rule="nonzero" /><path id="197" transform="matrix(1 0 0 -1 0 729)" d="M160.68 602.58L207.18 602.58L207.18 603.06L160.68 603.06z" stroke="none" fill="#000000" fill-rule="nonzero" /><path id="198" transform="matrix(1 0 0 -1 0 729)" d="M207.18 602.58L207.66 602.58L207.66 603.06L207.18 603.06z" stroke="none" fill="#000000" fill-rule="nonzero" /><path id="199" transform="matrix(1 0 0 -1 0 729)" d="M207.66 602.58L259.86 602.58L259.86 603.06L207.66 603.06z" stroke="none" fill="#000000" fill-rule="nonzero" /><path id="200" transform="matrix(1 0 0 -1 0 729)" d="M260.82 602.58L261.3 602.58L261.3 603.06L260.82 603.06z" stroke="none" fill="#000000" fill-rule="nonzero" /><path id="201" transform="matrix(1 0 0 -1 0 729)" d="M259.86 602.58L260.34 602.58L260.34 603.06L259.86 603.06z" stroke="none" fill="#000000" fill-rule="nonzero" /><path id="202" transform="matrix(1 0 0 -1 0 729)" d="M261.3 602.58L307.26 602.58L307.26 603.06L261.3 603.06z" stroke="none" fill="#000000" fill-rule="nonzero" /><path id="203" transform="matrix(1 0 0 -1 0 729)" d="M307.26 602.58L307.74 602.58L307.74 603.06L307.26 603.06z" stroke="none" fill="#000000" fill-rule="nonzero" /><path id="204" transform="matrix(1 0 0 -1 0 729)" d="M307.74 602.58L354.24 602.58L354.24 603.06L307.74 603.06z" stroke="none" fill="#000000" fill-rule="nonzero" /><path id="205" transform="matrix(1 0 0 -1 0 729)" d="M354.24 602.58L354.72 602.58L354.72 603.06L354.24 603.06z" stroke="none" fill="#000000" fill-rule="nonzero" /><path id="206" transform="matrix(1 0 0 -1 0 729)" d="M354.72 602.58L401.16 602.58L401.16 603.06L354.72 603.06z" stroke="none" fill="#000000" fill-rule="nonzero" /><path id="207" transform="matrix(1 0 0 -1 0 729)" d="M401.16 602.58L401.64 602.58L401.64 603.06L401.16 603.06z" stroke="none" fill="#000000" fill-rule="nonzero" /><path id="208" transform="matrix(1 0 0 -1 0 729)" d="M401.64 602.58L458.04 602.58L458.04 603.06L401.64 603.06z" stroke="none" fill="#000000" fill-rule="nonzero" /><path id="209" transform="matrix(1 0 0 -1 0 729)" d="M113.34 585.96L113.82 585.96L113.82 602.58L113.34 602.58z" stroke="none" fill="#000000" fill-rule="nonzero" /><path id="210" transform="matrix(1 0 0 -1 0 729)" d="M160.2 585.96L160.68 585.96L160.68 602.58L160.2 602.58z" stroke="none" fill="#000000" fill-rule="nonzero" /><path id="211" transform="matrix(1 0 0 -1 0 729)" d="M207.18 585.96L207.66 585.96L207.66 602.58L207.18 602.58z" stroke="none" fill="#000000" fill-rule="nonzero" /><path id="212" transform="matrix(1 0 0 -1 0 729)" d="M260.82 585.96L261.3 585.96L261.3 602.58L260.82 602.58z" stroke="none" fill="#000000" fill-rule="nonzero" /><path id="213" transform="matrix(1 0 0 -1 0 729)" d="M259.86 585.96L260.34 585.96L260.34 602.58L259.86 602.58z" stroke="none" fill="#000000" fill-rule="nonzero" /><path id="214" transform="matrix(1 0 0 -1 0 729)" d="M307.26 585.96L307.74 585.96L307.74 602.58L307.26 602.58z" stroke="none" fill="#000000" fill-rule="nonzero" /><path id="215" transform="matrix(1 0 0 -1 0 729)" d="M354.24 585.96L354.72 585.96L354.72 602.58L354.24 602.58z" stroke="none" fill="#000000" fill-rule="nonzero" /><path id="216" transform="matrix(1 0 0 -1 0 729)" d="M401.16 585.96L401.64 585.96L401.64 602.58L401.16 602.58z" stroke="none" fill="#000000" fill-rule="nonzero" /><path id="233" transform="matrix(1 0 0 -1 0 729)" d="M57.48 585.48L113.34 585.48L113.34 585.96L57.48 585.96z" stroke="none" fill="#000000" fill-rule="nonzero" /><path id="234" transform="matrix(1 0 0 -1 0 729)" d="M113.34 585.48L113.82 585.48L113.82 585.96L113.34 585.96z" stroke="none" fill="#000000" fill-rule="nonzero" /><path id="235" transform="matrix(1 0 0 -1 0 729)" d="M113.82 585.48L160.2 585.48L160.2 585.96L113.82 585.96z" stroke="none" fill="#000000" fill-rule="nonzero" /><path id="236" transform="matrix(1 0 0 -1 0 729)" d="M160.2 585.48L160.68 585.48L160.68 585.96L160.2 585.96z" stroke="none" fill="#000000" fill-rule="nonzero" /><path id="237" transform="matrix(1 0 0 -1 0 729)" d="M160.68 585.48L207.18 585.48L207.18 585.96L160.68 585.96z" stroke="none" fill="#000000" fill-rule="nonzero" /><path id="238" transform="matrix(1 0 0 -1 0 729)" d="M207.18 585.48L207.66 585.48L207.66 585.96L207.18 585.96z" stroke="none" fill="#000000" fill-rule="nonzero" /><path id="239" transform="matrix(1 0 0 -1 0 729)" d="M207.66 585.48L259.86 585.48L259.86 585.96L207.66 585.96z" stroke="none" fill="#000000" fill-rule="nonzero" /><path id="240" transform="matrix(1 0 0 -1 0 729)" d="M260.82 585.48L261.3 585.48L261.3 585.96L260.82 585.96z" stroke="none" fill="#000000" fill-rule="nonzero" /><path id="241" transform="matrix(1 0 0 -1 0 729)" d="M259.86 585.48L260.34 585.48L260.34 585.96L259.86 585.96z" stroke="none" fill="#000000" fill-rule="nonzero" /><path id="242" transform="matrix(1 0 0 -1 0 729)" d="M261.3 585.48L307.26 585.48L307.26 585.96L261.3 585.96z" stroke="none" fill="#000000" fill-rule="nonzero" /><path id="243" transform="matrix(1 0 0 -1 0 729)" d="M307.26 585.48L307.74 585.48L307.74 585.96L307.26 585.96z" stroke="none" fill="#000000" fill-rule="nonzero" /><path id="244" transform="matrix(1 0 0 -1 0 729)" d="M307.74 585.48L354.24 585.48L354.24 585.96L307.74 585.96z" stroke="none" fill="#000000" fill-rule="nonzero" /><path id="245" transform="matrix(1 0 0 -1 0 729)" d="M354.24 585.48L354.72 585.48L354.72 585.96L354.24 585.96z" stroke="none" fill="#000000" fill-rule="nonzero" /><path id="246" transform="matrix(1 0 0 -1 0 729)" d="M354.72 585.48L401.16 585.48L401.16 585.96L354.72 585.96z" stroke="none" fill="#000000" fill-rule="nonzero" /><path id="247" transform="matrix(1 0 0 -1 0 729)" d="M401.16 585.48L401.64 585.48L401.64 585.96L401.16 585.96z" stroke="none" fill="#000000" fill-rule="nonzero" /><path id="248" transform="matrix(1 0 0 -1 0 729)" d="M401.64 585.48L458.04 585.48L458.04 585.96L401.64 585.96z" stroke="none" fill="#000000" fill-rule="nonzero" /><path id="249" transform="matrix(1 0 0 -1 0 729)" d="M113.34 568.86L113.82 568.86L113.82 585.48L113.34 585.48z" stroke="none" fill="#000000" fill-rule="nonzero" /><path id="250" transform="matrix(1 0 0 -1 0 729)" d="M160.2 568.86L160.68 568.86L160.68 585.48L160.2 585.48z" stroke="none" fill="#000000" fill-rule="nonzero" /><path id="251" transform="matrix(1 0 0 -1 0 729)" d="M207.18 568.86L207.66 568.86L207.66 585.48L207.18 585.48z" stroke="none" fill="#000000" fill-rule="nonzero" /><path id="252" transform="matrix(1 0 0 -1 0 729)" d="M260.82 568.86L261.3 568.86L261.3 585.48L260.82 585.48z" stroke="none" fill="#000000" fill-rule="nonzero" /><path id="253" transform="matrix(1 0 0 -1 0 729)" d="M259.86 568.86L260.34 568.86L260.34 585.48L259.86 585.48z" stroke="none" fill="#000000" fill-rule="nonzero" /><path id="254" transform="matrix(1 0 0 -1 0 729)" d="M307.26 568.86L307.74 568.86L307.74 585.48L307.26 585.48z" stroke="none" fill="#000000" fill-rule="nonzero" /><path id="255" transform="matrix(1 0 0 -1 0 729)" d="M354.24 568.86L354.72 568.86L354.72 585.48L354.24 585.48z" stroke="none" fill="#000000" fill-rule="nonzero" /><path id="256" transform="matrix(1 0 0 -1 0 729)" d="M401.16 568.86L401.64 568.86L401.64 585.48L401.16 585.48z" stroke="none" fill="#000000" fill-rule="nonzero" /><path id="273" transform="matrix(1 0 0 -1 0 729)" d="M57.48 568.38L113.34 568.38L113.34 568.86L57.48 568.86z" stroke="none" fill="#000000" fill-rule="nonzero" /><path id="274" transform="matrix(1 0 0 -1 0 729)" d="M113.34 568.38L113.82 568.38L113.82 568.86L113.34 568.86z" stroke="none" fill="#000000" fill-rule="nonzero" /><path id="275" transform="matrix(1 0 0 -1 0 729)" d="M113.82 568.38L160.2 568.38L160.2 568.86L113.82 568.86z" stroke="none" fill="#000000" fill-rule="nonzero" /><path id="276" transform="matrix(1 0 0 -1 0 729)" d="M160.2 568.38L160.68 568.38L160.68 568.86L160.2 568.86z" stroke="none" fill="#000000" fill-rule="nonzero" /><path id="277" transform="matrix(1 0 0 -1 0 729)" d="M160.68 568.38L207.18 568.38L207.18 568.86L160.68 568.86z" stroke="none" fill="#000000" fill-rule="nonzero" /><path id="278" transform="matrix(1 0 0 -1 0 729)" d="M207.18 568.38L207.66 568.38L207.66 568.86L207.18 568.86z" stroke="none" fill="#000000" fill-rule="nonzero" /><path id="279" transform="matrix(1 0 0 -1 0 729)" d="M207.66 568.38L259.86 568.38L259.86 568.86L207.66 568.86z" stroke="none" fill="#000000" fill-rule="nonzero" /><path id="280" transform="matrix(1 0 0 -1 0 729)" d="M260.82 568.38L261.3 568.38L261.3 568.86L260.82 568.86z" stroke="none" fill="#000000" fill-rule="nonzero" /><path id="281" transform="matrix(1 0 0 -1 0 729)" d="M259.86 568.38L260.34 568.38L260.34 568.86L259.86 568.86z" stroke="none" fill="#000000" fill-rule="nonzero" /><path id="282" transform="matrix(1 0 0 -1 0 729)" d="M261.3 568.38L307.26 568.38L307.26 568.86L261.3 568.86z" stroke="none" fill="#000000" fill-rule="nonzero" /><path id="283" transform="matrix(1 0 0 -1 0 729)" d="M307.26 568.38L307.74 568.38L307.74 568.86L307.26 568.86z" stroke="none" fill="#000000" fill-rule="nonzero" /><path id="284" transform="matrix(1 0 0 -1 0 729)" d="M307.74 568.38L354.24 568.38L354.24 568.86L307.74 568.86z" stroke="none" fill="#000000" fill-rule="nonzero" /><path id="285" transform="matrix(1 0 0 -1 0 729)" d="M354.24 568.38L354.72 568.38L354.72 568.86L354.24 568.86z" stroke="none" fill="#000000" fill-rule="nonzero" /><path id="286" transform="matrix(1 0 0 -1 0 729)" d="M354.72 568.38L401.16 568.38L401.16 568.86L354.72 568.86z" stroke="none" fill="#000000" fill-rule="nonzero" /><path id="287" transform="matrix(1 0 0 -1 0 729)" d="M401.16 568.38L401.64 568.38L401.64 568.86L401.16 568.86z" stroke="none" fill="#000000" fill-rule="nonzero" /><path id="288" transform="matrix(1 0 0 -1 0 729)" d="M401.64 568.38L458.04 568.38L458.04 568.86L401.64 568.86z" stroke="none" fill="#000000" fill-rule="nonzero" /><path id="289" transform="matrix(1 0 0 -1 0 729)" d="M113.34 551.76L113.82 551.76L113.82 568.38L113.34 568.38z" stroke="none" fill="#000000" fill-rule="nonzero" /><path id="290" transform="matrix(1 0 0 -1 0 729)" d="M160.2 551.76L160.68 551.76L160.68 568.38L160.2 568.38z" stroke="none" fill="#000000" fill-rule="nonzero" /><path id="291" transform="matrix(1 0 0 -1 0 729)" d="M207.18 551.76L207.66 551.76L207.66 568.38L207.18 568.38z" stroke="none" fill="#000000" fill-rule="nonzero" /><path id="292" transform="matrix(1 0 0 -1 0 729)" d="M260.82 551.76L261.3 551.76L261.3 568.38L260.82 568.38z" stroke="none" fill="#000000" fill-rule="nonzero" /><path id="293" transform="matrix(1 0 0 -1 0 729)" d="M259.86 551.76L260.34 551.76L260.34 568.38L259.86 568.38z" stroke="none" fill="#000000" fill-rule="nonzero" /><path id="294" transform="matrix(1 0 0 -1 0 729)" d="M307.26 551.76L307.74 551.76L307.74 568.38L307.26 568.38z" stroke="none" fill="#000000" fill-rule="nonzero" /><path id="295" transform="matrix(1 0 0 -1 0 729)" d="M354.24 551.76L354.72 551.76L354.72 568.38L354.24 568.38z" stroke="none" fill="#000000" fill-rule="nonzero" /><path id="296" transform="matrix(1 0 0 -1 0 729)" d="M401.16 551.76L401.64 551.76L401.64 568.38L401.16 568.38z" stroke="none" fill="#000000" fill-rule="nonzero" /><path id="313" transform="matrix(1 0 0 -1 0 729)" d="M57.48 551.28L113.34 551.28L113.34 551.76L57.48 551.76z" stroke="none" fill="#000000" fill-rule="nonzero" /><path id="314" transform="matrix(1 0 0 -1 0 729)" d="M113.34 551.28L113.82 551.28L113.82 551.76L113.34 551.76z" stroke="none" fill="#000000" fill-rule="nonzero" /><path id="315" transform="matrix(1 0 0 -1 0 729)" d="M113.82 551.28L160.2 551.28L160.2 551.76L113.82 551.76z" stroke="none" fill="#000000" fill-rule="nonzero" /><path id="316" transform="matrix(1 0 0 -1 0 729)" d="M160.2 551.28L160.68 551.28L160.68 551.76L160.2 551.76z" stroke="none" fill="#000000" fill-rule="nonzero" /><path id="317" transform="matrix(1 0 0 -1 0 729)" d="M160.68 551.28L207.18 551.28L207.18 551.76L160.68 551.76z" stroke="none" fill="#000000" fill-rule="nonzero" /><path id="318" transform="matrix(1 0 0 -1 0 729)" d="M207.18 551.28L207.66 551.28L207.66 551.76L207.18 551.76z" stroke="none" fill="#000000" fill-rule="nonzero" /><path id="319" transform="matrix(1 0 0 -1 0 729)" d="M207.66 551.28L259.86 551.28L259.86 551.76L207.66 551.76z" stroke="none" fill="#000000" fill-rule="nonzero" /><path id="320" transform="matrix(1 0 0 -1 0 729)" d="M260.82 551.28L261.3 551.28L261.3 551.76L260.82 551.76z" stroke="none" fill="#000000" fill-rule="nonzero" /><path id="321" transform="matrix(1 0 0 -1 0 729)" d="M259.86 551.28L260.34 551.28L260.34 551.76L259.86 551.76z" stroke="none" fill="#000000" fill-rule="nonzero" /><path id="322" transform="matrix(1 0 0 -1 0 729)" d="M261.3 551.28L307.26 551.28L307.26 551.76L261.3 551.76z" stroke="none" fill="#000000" fill-rule="nonzero" /><path id="323" transform="matrix(1 0 0 -1 0 729)" d="M307.26 551.28L307.74 551.28L307.74 551.76L307.26 551.76z" stroke="none" fill="#000000" fill-rule="nonzero" /><path id="324" transform="matrix(1 0 0 -1 0 729)" d="M307.74 551.28L354.24 551.28L354.24 551.76L307.74 551.76z" stroke="none" fill="#000000" fill-rule="nonzero" /><path id="325" transform="matrix(1 0 0 -1 0 729)" d="M354.24 551.28L354.72 551.28L354.72 551.76L354.24 551.76z" stroke="none" fill="#000000" fill-rule="nonzero" /><path id="326" transform="matrix(1 0 0 -1 0 729)" d="M354.72 551.28L401.16 551.28L401.16 551.76L354.72 551.76z" stroke="none" fill="#000000" fill-rule="nonzero" /><path id="327" transform="matrix(1 0 0 -1 0 729)" d="M401.16 551.28L401.64 551.28L401.64 551.76L401.16 551.76z" stroke="none" fill="#000000" fill-rule="nonzero" /><path id="328" transform="matrix(1 0 0 -1 0 729)" d="M401.64 551.28L458.04 551.28L458.04 551.76L401.64 551.76z" stroke="none" fill="#000000" fill-rule="nonzero" /><path id="329" transform="matrix(1 0 0 -1 0 729)" d="M113.34 534.66L113.82 534.66L113.82 551.28L113.34 551.28z" stroke="none" fill="#000000" fill-rule="nonzero" /><path id="330" transform="matrix(1 0 0 -1 0 729)" d="M160.2 534.66L160.68 534.66L160.68 551.28L160.2 551.28z" stroke="none" fill="#000000" fill-rule="nonzero" /><path id="331" transform="matrix(1 0 0 -1 0 729)" d="M207.18 534.66L207.66 534.66L207.66 551.28L207.18 551.28z" stroke="none" fill="#000000" fill-rule="nonzero" /><path id="332" transform="matrix(1 0 0 -1 0 729)" d="M260.82 534.66L261.3 534.66L261.3 551.28L260.82 551.28z" stroke="none" fill="#000000" fill-rule="nonzero" /><path id="333" transform="matrix(1 0 0 -1 0 729)" d="M259.86 534.66L260.34 534.66L260.34 551.28L259.86 551.28z" stroke="none" fill="#000000" fill-rule="nonzero" /><path id="334" transform="matrix(1 0 0 -1 0 729)" d="M307.26 534.66L307.74 534.66L307.74 551.28L307.26 551.28z" stroke="none" fill="#000000" fill-rule="nonzero" /><path id="335" transform="matrix(1 0 0 -1 0 729)" d="M354.24 534.66L354.72 534.66L354.72 551.28L354.24 551.28z" stroke="none" fill="#000000" fill-rule="nonzero" /><path id="336" transform="matrix(1 0 0 -1 0 729)" d="M401.16 534.66L401.64 534.66L401.64 551.28L401.16 551.28z" stroke="none" fill="#000000" fill-rule="nonzero" /><path id="353" transform="matrix(1 0 0 -1 0 729)" d="M57.48 534.18L113.34 534.18L113.34 534.66L57.48 534.66z" stroke="none" fill="#000000" fill-rule="nonzero" /><path id="354" transform="matrix(1 0 0 -1 0 729)" d="M113.34 534.18L113.82 534.18L113.82 534.66L113.34 534.66z" stroke="none" fill="#000000" fill-rule="nonzero" /><path id="355" transform="matrix(1 0 0 -1 0 729)" d="M113.82 534.18L160.2 534.18L160.2 534.66L113.82 534.66z" stroke="none" fill="#000000" fill-rule="nonzero" /><path id="356" transform="matrix(1 0 0 -1 0 729)" d="M160.2 534.18L160.68 534.18L160.68 534.66L160.2 534.66z" stroke="none" fill="#000000" fill-rule="nonzero" /><path id="357" transform="matrix(1 0 0 -1 0 729)" d="M160.68 534.18L207.18 534.18L207.18 534.66L160.68 534.66z" stroke="none" fill="#000000" fill-rule="nonzero" /><path id="358" transform="matrix(1 0 0 -1 0 729)" d="M207.18 534.18L207.66 534.18L207.66 534.66L207.18 534.66z" stroke="none" fill="#000000" fill-rule="nonzero" /><path id="359" transform="matrix(1 0 0 -1 0 729)" d="M207.66 534.18L259.86 534.18L259.86 534.66L207.66 534.66z" stroke="none" fill="#000000" fill-rule="nonzero" /><path id="360" transform="matrix(1 0 0 -1 0 729)" d="M260.82 534.18L261.3 534.18L261.3 534.66L260.82 534.66z" stroke="none" fill="#000000" fill-rule="nonzero" /><path id="361" transform="matrix(1 0 0 -1 0 729)" d="M259.86 534.18L260.34 534.18L260.34 534.66L259.86 534.66z" stroke="none" fill="#000000" fill-rule="nonzero" /><path id="362" transform="matrix(1 0 0 -1 0 729)" d="M261.3 534.18L307.26 534.18L307.26 534.66L261.3 534.66z" stroke="none" fill="#000000" fill-rule="nonzero" /><path id="363" transform="matrix(1 0 0 -1 0 729)" d="M307.26 534.18L307.74 534.18L307.74 534.66L307.26 534.66z" stroke="none" fill="#000000" fill-rule="nonzero" /><path id="364" transform="matrix(1 0 0 -1 0 729)" d="M307.74 534.18L354.24 534.18L354.24 534.66L307.74 534.66z" stroke="none" fill="#000000" fill-rule="nonzero" /><path id="365" transform="matrix(1 0 0 -1 0 729)" d="M354.24 534.18L354.72 534.18L354.72 534.66L354.24 534.66z" stroke="none" fill="#000000" fill-rule="nonzero" /><path id="366" transform="matrix(1 0 0 -1 0 729)" d="M354.72 534.18L401.16 534.18L401.16 534.66L354.72 534.66z" stroke="none" fill="#000000" fill-rule="nonzero" /><path id="367" transform="matrix(1 0 0 -1 0 729)" d="M401.16 534.18L401.64 534.18L401.64 534.66L401.16 534.66z" stroke="none" fill="#000000" fill-rule="nonzero" /><path id="368" transform="matrix(1 0 0 -1 0 729)" d="M401.64 534.18L458.04 534.18L458.04 534.66L401.64 534.66z" stroke="none" fill="#000000" fill-rule="nonzero" /><path id="369" transform="matrix(1 0 0 -1 0 729)" d="M113.34 517.56L113.82 517.56L113.82 534.18L113.34 534.18z" stroke="none" fill="#000000" fill-rule="nonzero" /><path id="370" transform="matrix(1 0 0 -1 0 729)" d="M160.2 517.56L160.68 517.56L160.68 534.18L160.2 534.18z" stroke="none" fill="#000000" fill-rule="nonzero" /><path id="371" transform="matrix(1 0 0 -1 0 729)" d="M207.18 517.56L207.66 517.56L207.66 534.18L207.18 534.18z" stroke="none" fill="#000000" fill-rule="nonzero" /><path id="372" transform="matrix(1 0 0 -1 0 729)" d="M260.82 517.56L261.3 517.56L261.3 534.18L260.82 534.18z" stroke="none" fill="#000000" fill-rule="nonzero" /><path id="373" transform="matrix(1 0 0 -1 0 729)" d="M259.86 517.56L260.34 517.56L260.34 534.18L259.86 534.18z" stroke="none" fill="#000000" fill-rule="nonzero" /><path id="374" transform="matrix(1 0 0 -1 0 729)" d="M307.26 517.56L307.74 517.56L307.74 534.18L307.26 534.18z" stroke="none" fill="#000000" fill-rule="nonzero" /><path id="375" transform="matrix(1 0 0 -1 0 729)" d="M354.24 517.56L354.72 517.56L354.72 534.18L354.24 534.18z" stroke="none" fill="#000000" fill-rule="nonzero" /><path id="376" transform="matrix(1 0 0 -1 0 729)" d="M401.16 517.56L401.64 517.56L401.64 534.18L401.16 534.18z" stroke="none" fill="#000000" fill-rule="nonzero" /><path id="393" transform="matrix(1 0 0 -1 0 729)" d="M57.48 517.08L113.34 517.08L113.34 517.56L57.48 517.56z" stroke="none" fill="#000000" fill-rule="nonzero" /><path id="394" transform="matrix(1 0 0 -1 0 729)" d="M113.34 517.08L113.82 517.08L113.82 517.56L113.34 517.56z" stroke="none" fill="#000000" fill-rule="nonzero" /><path id="395" transform="matrix(1 0 0 -1 0 729)" d="M113.82 517.08L160.2 517.08L160.2 517.56L113.82 517.56z" stroke="none" fill="#000000" fill-rule="nonzero" /><path id="396" transform="matrix(1 0 0 -1 0 729)" d="M160.2 517.08L160.68 517.08L160.68 517.56L160.2 517.56z" stroke="none" fill="#000000" fill-rule="nonzero" /><path id="397" transform="matrix(1 0 0 -1 0 729)" d="M160.68 517.08L207.18 517.08L207.18 517.56L160.68 517.56z" stroke="none" fill="#000000" fill-rule="nonzero" /><path id="398" transform="matrix(1 0 0 -1 0 729)" d="M207.18 517.08L207.66 517.08L207.66 517.56L207.18 517.56z" stroke="none" fill="#000000" fill-rule="nonzero" /><path id="399" transform="matrix(1 0 0 -1 0 729)" d="M207.66 517.08L259.86 517.08L259.86 517.56L207.66 517.56z" stroke="none" fill="#000000" fill-rule="nonzero" /><path id="400" transform="matrix(1 0 0 -1 0 729)" d="M260.82 517.08L261.3 517.08L261.3 517.56L260.82 517.56z" stroke="none" fill="#000000" fill-rule="nonzero" /><path id="401" transform="matrix(1 0 0 -1 0 729)" d="M259.86 517.08L260.34 517.08L260.34 517.56L259.86 517.56z" stroke="none" fill="#000000" fill-rule="nonzero" /><path id="402" transform="matrix(1 0 0 -1 0 729)" d="M261.3 517.08L307.26 517.08L307.26 517.56L261.3 517.56z" stroke="none" fill="#000000" fill-rule="nonzero" /><path id="403" transform="matrix(1 0 0 -1 0 729)" d="M307.26 517.08L307.74 517.08L307.74 517.56L307.26 517.56z" stroke="none" fill="#000000" fill-rule="nonzero" /><path id="404" transform="matrix(1 0 0 -1 0 729)" d="M307.74 517.08L354.24 517.08L354.24 517.56L307.74 517.56z" stroke="none" fill="#000000" fill-rule="nonzero" /><path id="405" transform="matrix(1 0 0 -1 0 729)" d="M354.24 517.08L354.72 517.08L354.72 517.56L354.24 517.56z" stroke="none" fill="#000000" fill-rule="nonzero" /><path id="406" transform="matrix(1 0 0 -1 0 729)" d="M354.72 517.08L401.16 517.08L401.16 517.56L354.72 517.56z" stroke="none" fill="#000000" fill-rule="nonzero" /><path id="407" transform="matrix(1 0 0 -1 0 729)" d="M401.16 517.08L401.64 517.08L401.64 517.56L401.16 517.56z" stroke="none" fill="#000000" fill-rule="nonzero" /><path id="408" transform="matrix(1 0 0 -1 0 729)" d="M401.64 517.08L458.04 517.08L458.04 517.56L401.64 517.56z" stroke="none" fill="#000000" fill-rule="nonzero" /><path id="409" transform="matrix(1 0 0 -1 0 729)" d="M56.76 499.44L113.34 499.44L113.34 500.4L56.76 500.4z" stroke="none" fill="#000000" fill-rule="nonzero" /><path id="410" transform="matrix(1 0 0 -1 0 729)" d="M113.34 500.4L113.82 500.4L113.82 517.08L113.34 517.08z" stroke="none" fill="#000000" fill-rule="nonzero" /><path id="411" transform="matrix(1 0 0 -1 0 729)" d="M113.34 499.44L114.3 499.44L114.3 500.4L113.34 500.4z" stroke="none" fill="#000000" fill-rule="nonzero" /><path id="412" transform="matrix(1 0 0 -1 0 729)" d="M114.3 499.44L160.2 499.44L160.2 500.4L114.3 500.4z" stroke="none" fill="#000000" fill-rule="nonzero" /><path id="413" transform="matrix(1 0 0 -1 0 729)" d="M160.2 500.4L160.68 500.4L160.68 517.08L160.2 517.08z" stroke="none" fill="#000000" fill-rule="nonzero" /><path id="414" transform="matrix(1 0 0 -1 0 729)" d="M160.2 499.44L161.16 499.44L161.16 500.4L160.2 500.4z" stroke="none" fill="#000000" fill-rule="nonzero" /><path id="415" transform="matrix(1 0 0 -1 0 729)" d="M161.16 499.44L207.18 499.44L207.18 500.4L161.16 500.4z" stroke="none" fill="#000000" fill-rule="nonzero" /><path id="416" transform="matrix(1 0 0 -1 0 729)" d="M207.18 500.4L207.66 500.4L207.66 517.08L207.18 517.08z" stroke="none" fill="#000000" fill-rule="nonzero" /><path id="417" transform="matrix(1 0 0 -1 0 729)" d="M207.18 499.44L208.14 499.44L208.14 500.4L207.18 500.4z" stroke="none" fill="#000000" fill-rule="nonzero" /><path id="418" transform="matrix(1 0 0 -1 0 729)" d="M208.14 499.44L259.86 499.44L259.86 500.4L208.14 500.4z" stroke="none" fill="#000000" fill-rule="nonzero" /><path id="419" transform="matrix(1 0 0 -1 0 729)" d="M260.82 500.4L261.3 500.4L261.3 517.08L260.82 517.08z" stroke="none" fill="#000000" fill-rule="nonzero" /><path id="420" transform="matrix(1 0 0 -1 0 729)" d="M259.86 500.4L260.34 500.4L260.34 517.08L259.86 517.08z" stroke="none" fill="#000000" fill-rule="nonzero" /><path id="421" transform="matrix(1 0 0 -1 0 729)" d="M259.86 499.44L260.82 499.44L260.82 500.4L259.86 500.4z" stroke="none" fill="#000000" fill-rule="nonzero" /><path id="422" transform="matrix(1 0 0 -1 0 729)" d="M260.82 499.44L307.26 499.44L307.26 500.4L260.82 500.4z" stroke="none" fill="#000000" fill-rule="nonzero" /><path id="423" transform="matrix(1 0 0 -1 0 729)" d="M307.26 500.4L307.74 500.4L307.74 517.08L307.26 517.08z" stroke="none" fill="#000000" fill-rule="nonzero" /><path id="424" transform="matrix(1 0 0 -1 0 729)" d="M307.26 499.44L308.22 499.44L308.22 500.4L307.26 500.4z" stroke="none" fill="#000000" fill-rule="nonzero" /><path id="425" transform="matrix(1 0 0 -1 0 729)" d="M308.22 499.44L354.24 499.44L354.24 500.4L308.22 500.4z" stroke="none" fill="#000000" fill-rule="nonzero" /><path id="426" transform="matrix(1 0 0 -1 0 729)" d="M354.24 500.4L354.72 500.4L354.72 517.08L354.24 517.08z" stroke="none" fill="#000000" fill-rule="nonzero" /><path id="427" transform="matrix(1 0 0 -1 0 729)" d="M354.24 499.44L355.2 499.44L355.2 500.4L354.24 500.4z" stroke="none" fill="#000000" fill-rule="nonzero" /><path id="428" transform="matrix(1 0 0 -1 0 729)" d="M355.2 499.44L401.16 499.44L401.16 500.4L355.2 500.4z" stroke="none" fill="#000000" fill-rule="nonzero" /><path id="429" transform="matrix(1 0 0 -1 0 729)" d="M401.16 500.4L401.64 500.4L401.64 517.08L401.16 517.08z" stroke="none" fill="#000000" fill-rule="nonzero" /><path id="430" transform="matrix(1 0 0 -1 0 729)" d="M401.16 499.44L402.12 499.44L402.12 500.4L401.16 500.4z" stroke="none" fill="#000000" fill-rule="nonzero" /><path id="431" transform="matrix(1 0 0 -1 0 729)" d="M402.12 499.44L458.4 499.44L458.4 500.4L402.12 500.4z" stroke="none" fill="#000000" fill-rule="nonzero" /></g></g></svg>