<svg xmlns="http://www.w3.org/2000/svg" xmlns:xlink="http://www.w3.org/1999/xlink" id="body_6" preserveAspectRatio="xMinYMin meet" viewBox="0 0 688 972"><defs><clipPath id="1"><path id="" clip-rule="evenodd" d="M0 729L0 0L0 0L516 0L516 0L516 729L516 729L0 729z" /></clipPath><clipPath id="2"><path id="" clip-rule="evenodd" d="M83.8199 40.85999L90.7799 40.85999L90.7799 40.85999L90.7799 30.65997L90.7799 30.65997L83.8199 30.65997z" /></clipPath><clipPath id="3"><path id="" clip-rule="evenodd" d="M111.54 671.28L120.54 671.28L120.54 671.28L120.54 664.44L120.54 664.44L111.54 664.44z" /></clipPath></defs><g transform="matrix(1.333333 0 0 1.333333 0 0)"><g clip-path="url(#1)"><path id="11" transform="matrix(1 0 0 -1 0 729)" d="M55.2 685.98L460.74 685.98L460.74 686.46L55.2 686.46z" stroke="none" fill="#000000" fill-rule="nonzero" /><path id="12" transform="matrix(1 0 0 -1 0 729)" d="M55.2 686.94L460.74 686.94L460.74 687.42L55.2 687.42z" stroke="none" fill="#000000" fill-rule="nonzero" /><g clip-path="url(#2)"></g><path id="2461" transform="matrix(1 0 0 -1 0 729)" d="M257.58 53.16L258.36 53.16L258.36 671.8199L257.58 671.8199z" stroke="none" fill="#000000" fill-rule="nonzero" /><path id="2462" transform="matrix(1 0 0 -1 0 729)" d="M83.1 54.06L464.22 54.06L464.22 70.98L83.1 70.98z" stroke="none" fill="#FFFFFF" fill-rule="nonzero" /><g clip-path="url(#3)"></g></g></g></svg>