<svg xmlns="http://www.w3.org/2000/svg" xmlns:xlink="http://www.w3.org/1999/xlink" id="body_31" preserveAspectRatio="xMinYMin meet" viewBox="0 0 688 972"><defs><clipPath id="1"><path id="" clip-rule="evenodd" d="M0 729L0 0L0 0L516 0L516 0L516 729L516 729L0 729z" /></clipPath><clipPath id="2"><path id="" clip-rule="evenodd" d="M452.16 40.85999L459.3 40.85999L459.3 40.85999L459.3 30.65997L459.3 30.65997L452.16 30.65997z" /></clipPath><clipPath id="3"><path id="" clip-rule="evenodd" d="M457.68 461.1L458.94 461.1L458.94 461.1L458.94 450.9L458.94 450.9L457.68 450.9z" /></clipPath></defs><g transform="matrix(1.333333 0 0 1.333333 0 0)"><g clip-path="url(#1)"><path id="14" transform="matrix(1 0 0 -1 0 729)" d="M55.2 685.98L460.74 685.98L460.74 686.46L55.2 686.46z" stroke="none" fill="#000000" fill-rule="nonzero" /><path id="15" transform="matrix(1 0 0 -1 0 729)" d="M55.2 686.94L460.74 686.94L460.74 687.42L55.2 687.42z" stroke="none" fill="#000000" fill-rule="nonzero" /><g clip-path="url(#2)"></g><path id="584" transform="matrix(1 0 0 -1 0 729)" d="M56.94 318.24L118.26 318.24L118.26 319.2L56.94 319.2z" stroke="none" fill="#000000" fill-rule="nonzero" /><path id="585" transform="matrix(1 0 0 -1 0 729)" d="M118.26 318.18L118.74 318.18L118.74 318.24L118.26 318.24z" stroke="none" fill="#000000" fill-rule="nonzero" /><path id="586" transform="matrix(1 0 0 -1 0 729)" d="M118.26 318.24L119.22 318.24L119.22 319.2L118.26 319.2z" stroke="none" fill="#000000" fill-rule="nonzero" /><path id="587" transform="matrix(1 0 0 -1 0 729)" d="M119.22 318.24L458.58 318.24L458.58 319.2L119.22 319.2z" stroke="none" fill="#000000" fill-rule="nonzero" /><path id="588" transform="matrix(1 0 0 -1 0 729)" d="M118.26 301.56L118.74 301.56L118.74 318.18L118.26 318.18z" stroke="none" fill="#000000" fill-rule="nonzero" /><path id="611" transform="matrix(1 0 0 -1 0 729)" d="M56.94 301.08L118.26 301.08L118.26 301.56L56.94 301.56z" stroke="none" fill="#000000" fill-rule="nonzero" /><path id="612" transform="matrix(1 0 0 -1 0 729)" d="M118.26 301.08L118.74 301.08L118.74 301.56L118.26 301.56z" stroke="none" fill="#000000" fill-rule="nonzero" /><path id="613" transform="matrix(1 0 0 -1 0 729)" d="M118.74 301.08L458.58 301.08L458.58 301.56L118.74 301.56z" stroke="none" fill="#000000" fill-rule="nonzero" /><path id="614" transform="matrix(1 0 0 -1 0 729)" d="M118.26 284.46L118.74 284.46L118.74 301.08L118.26 301.08z" stroke="none" fill="#000000" fill-rule="nonzero" /><g clip-path="url(#3)"></g><path id="660" transform="matrix(1 0 0 -1 0 729)" d="M56.94 283.98L118.26 283.98L118.26 284.46L56.94 284.46z" stroke="none" fill="#000000" fill-rule="nonzero" /><path id="661" transform="matrix(1 0 0 -1 0 729)" d="M118.26 283.98L118.74 283.98L118.74 284.46L118.26 284.46z" stroke="none" fill="#000000" fill-rule="nonzero" /><path id="662" transform="matrix(1 0 0 -1 0 729)" d="M118.74 283.98L458.58 283.98L458.58 284.46L118.74 284.46z" stroke="none" fill="#000000" fill-rule="nonzero" /><path id="663" transform="matrix(1 0 0 -1 0 729)" d="M118.26 267.36L118.74 267.36L118.74 283.98L118.26 283.98z" stroke="none" fill="#000000" fill-rule="nonzero" /><path id="740" transform="matrix(1 0 0 -1 0 729)" d="M56.94 266.88L118.26 266.88L118.26 267.36L56.94 267.36z" stroke="none" fill="#000000" fill-rule="nonzero" /><path id="741" transform="matrix(1 0 0 -1 0 729)" d="M118.26 266.88L118.74 266.88L118.74 267.36L118.26 267.36z" stroke="none" fill="#000000" fill-rule="nonzero" /><path id="742" transform="matrix(1 0 0 -1 0 729)" d="M118.74 266.88L458.58 266.88L458.58 267.36L118.74 267.36z" stroke="none" fill="#000000" fill-rule="nonzero" /><path id="743" transform="matrix(1 0 0 -1 0 729)" d="M118.26 233.7L118.74 233.7L118.74 266.88L118.26 266.88z" stroke="none" fill="#000000" fill-rule="nonzero" /><path id="816" transform="matrix(1 0 0 -1 0 729)" d="M56.94 233.22L118.26 233.22L118.26 233.7L56.94 233.7z" stroke="none" fill="#000000" fill-rule="nonzero" /><path id="817" transform="matrix(1 0 0 -1 0 729)" d="M118.26 233.22L118.74 233.22L118.74 233.7L118.26 233.7z" stroke="none" fill="#000000" fill-rule="nonzero" /><path id="818" transform="matrix(1 0 0 -1 0 729)" d="M118.74 233.22L458.58 233.22L458.58 233.7L118.74 233.7z" stroke="none" fill="#000000" fill-rule="nonzero" /><path id="819" transform="matrix(1 0 0 -1 0 729)" d="M118.26 183.36L118.74 183.36L118.74 233.22L118.26 233.22z" stroke="none" fill="#000000" fill-rule="nonzero" /><path id="873" transform="matrix(1 0 0 -1 0 729)" d="M56.94 182.88L118.26 182.88L118.26 183.36L56.94 183.36z" stroke="none" fill="#000000" fill-rule="nonzero" /><path id="874" transform="matrix(1 0 0 -1 0 729)" d="M118.26 182.88L118.74 182.88L118.74 183.36L118.26 183.36z" stroke="none" fill="#000000" fill-rule="nonzero" /><path id="875" transform="matrix(1 0 0 -1 0 729)" d="M118.74 182.88L458.58 182.88L458.58 183.36L118.74 183.36z" stroke="none" fill="#000000" fill-rule="nonzero" /><path id="876" transform="matrix(1 0 0 -1 0 729)" d="M118.26 149.7L118.74 149.7L118.74 182.88L118.26 182.88z" stroke="none" fill="#000000" fill-rule="nonzero" /><path id="911" transform="matrix(1 0 0 -1 0 729)" d="M56.94 149.22L118.26 149.22L118.26 149.7L56.94 149.7z" stroke="none" fill="#000000" fill-rule="nonzero" /><path id="912" transform="matrix(1 0 0 -1 0 729)" d="M118.26 149.22L118.74 149.22L118.74 149.7L118.26 149.7z" stroke="none" fill="#000000" fill-rule="nonzero" /><path id="913" transform="matrix(1 0 0 -1 0 729)" d="M118.74 149.22L458.58 149.22L458.58 149.7L118.74 149.7z" stroke="none" fill="#000000" fill-rule="nonzero" /><path id="914" transform="matrix(1 0 0 -1 0 729)" d="M118.26 132.6L118.74 132.6L118.74 149.22L118.26 149.22z" stroke="none" fill="#000000" fill-rule="nonzero" /><path id="941" transform="matrix(1 0 0 -1 0 729)" d="M56.94 132.12L118.26 132.12L118.26 132.6L56.94 132.6z" stroke="none" fill="#000000" fill-rule="nonzero" /><path id="942" transform="matrix(1 0 0 -1 0 729)" d="M118.26 132.12L118.74 132.12L118.74 132.6L118.26 132.6z" stroke="none" fill="#000000" fill-rule="nonzero" /><path id="943" transform="matrix(1 0 0 -1 0 729)" d="M118.74 132.12L458.58 132.12L458.58 132.6L118.74 132.6z" stroke="none" fill="#000000" fill-rule="nonzero" /><path id="944" transform="matrix(1 0 0 -1 0 729)" d="M56.22 114.48L118.26 114.48L118.26 115.44L56.22 115.44z" stroke="none" fill="#000000" fill-rule="nonzero" /><path id="945" transform="matrix(1 0 0 -1 0 729)" d="M118.26 115.44L118.74 115.44L118.74 132.12L118.26 132.12z" stroke="none" fill="#000000" fill-rule="nonzero" /><path id="946" transform="matrix(1 0 0 -1 0 729)" d="M118.26 114.48L119.22 114.48L119.22 115.44L118.26 115.44z" stroke="none" fill="#000000" fill-rule="nonzero" /><path id="947" transform="matrix(1 0 0 -1 0 729)" d="M119.22 114.48L458.94 114.48L458.94 115.44L119.22 115.44z" stroke="none" fill="#000000" fill-rule="nonzero" /></g></g></svg>