<svg xmlns="http://www.w3.org/2000/svg" xmlns:xlink="http://www.w3.org/1999/xlink" id="body_4" preserveAspectRatio="xMinYMin meet" viewBox="0 0 688 972"><defs><clipPath id="1"><path id="" clip-rule="evenodd" d="M0 729L0 0L0 0L516 0L516 0L516 729L516 729L0 729z" /></clipPath><clipPath id="2"><path id="" clip-rule="evenodd" d="M83.8199 40.85999L90.7799 40.85999L90.7799 40.85999L90.7799 30.65997L90.7799 30.65997L83.8199 30.65997z" /></clipPath></defs><g transform="matrix(1.333333 0 0 1.333333 0 0)"><g clip-path="url(#1)"><path id="11" transform="matrix(1 0 0 -1 0 729)" d="M55.2 685.98L460.74 685.98L460.74 686.46L55.2 686.46z" stroke="none" fill="#000000" fill-rule="nonzero" /><path id="12" transform="matrix(1 0 0 -1 0 729)" d="M55.2 686.94L460.74 686.94L460.74 687.42L55.2 687.42z" stroke="none" fill="#000000" fill-rule="nonzero" /><g clip-path="url(#2)"></g><path id="2511" transform="matrix(1 0 0 -1 0 729)" d="M257.58 44.7L258.36 44.7L258.36 671.82L257.58 671.82z" stroke="none" fill="#000000" fill-rule="nonzero" /></g></g></svg>