<svg xmlns="http://www.w3.org/2000/svg" xmlns:xlink="http://www.w3.org/1999/xlink" id="body_32" preserveAspectRatio="xMinYMin meet" viewBox="0 0 688 972"><defs><clipPath id="1"><path id="" clip-rule="evenodd" d="M0 729L0 0L0 0L516 0L516 0L516 729L516 729L0 729z" /></clipPath><clipPath id="2"><path id="" clip-rule="evenodd" d="M83.58 40.85999L90.78 40.85999L90.78 40.85999L90.78 30.65997L90.78 30.65997L83.58 30.65997z" /></clipPath></defs><g transform="matrix(1.333333 0 0 1.333333 0 0)"><g clip-path="url(#1)"><path id="11" transform="matrix(1 0 0 -1 0 729)" d="M55.2 685.98L460.74 685.98L460.74 686.46L55.2 686.46z" stroke="none" fill="#000000" fill-rule="nonzero" /><path id="12" transform="matrix(1 0 0 -1 0 729)" d="M55.2 686.94L460.74 686.94L460.74 687.42L55.2 687.42z" stroke="none" fill="#000000" fill-rule="nonzero" /><g clip-path="url(#2)"></g><path id="171" transform="matrix(1 0 0 -1 0 729)" d="M56.94 560.7L155.3999 560.7L155.3999 561.66L56.94 561.66z" stroke="none" fill="#000000" fill-rule="nonzero" /><path id="172" transform="matrix(1 0 0 -1 0 729)" d="M155.4 560.64L155.88 560.64L155.88 560.7L155.4 560.7z" stroke="none" fill="#000000" fill-rule="nonzero" /><path id="173" transform="matrix(1 0 0 -1 0 729)" d="M155.4 560.7L156.36 560.7L156.36 561.66L155.4 561.66z" stroke="none" fill="#000000" fill-rule="nonzero" /><path id="174" transform="matrix(1 0 0 -1 0 729)" d="M156.36 560.7L458.58 560.7L458.58 561.66L156.36 561.66z" stroke="none" fill="#000000" fill-rule="nonzero" /><path id="175" transform="matrix(1 0 0 -1 0 729)" d="M155.4 544.08L155.88 544.08L155.88 560.64L155.4 560.64z" stroke="none" fill="#000000" fill-rule="nonzero" /><path id="187" transform="matrix(1 0 0 -1 0 729)" d="M56.94 543.6L155.3999 543.6L155.3999 544.08L56.94 544.08z" stroke="none" fill="#000000" fill-rule="nonzero" /><path id="188" transform="matrix(1 0 0 -1 0 729)" d="M155.4 543.6L155.88 543.6L155.88 544.08L155.4 544.08z" stroke="none" fill="#000000" fill-rule="nonzero" /><path id="189" transform="matrix(1 0 0 -1 0 729)" d="M155.88 543.6L458.58 543.6L458.58 544.08L155.88 544.08z" stroke="none" fill="#000000" fill-rule="nonzero" /><path id="190" transform="matrix(1 0 0 -1 0 729)" d="M155.4 526.98L155.88 526.98L155.88 543.6L155.4 543.6z" stroke="none" fill="#000000" fill-rule="nonzero" /><path id="201" transform="matrix(1 0 0 -1 0 729)" d="M56.94 526.5L155.3999 526.5L155.3999 526.98L56.94 526.98z" stroke="none" fill="#000000" fill-rule="nonzero" /><path id="202" transform="matrix(1 0 0 -1 0 729)" d="M155.4 526.5L155.88 526.5L155.88 526.98L155.4 526.98z" stroke="none" fill="#000000" fill-rule="nonzero" /><path id="203" transform="matrix(1 0 0 -1 0 729)" d="M155.88 526.5L458.58 526.5L458.58 526.98L155.88 526.98z" stroke="none" fill="#000000" fill-rule="nonzero" /><path id="204" transform="matrix(1 0 0 -1 0 729)" d="M155.4 509.88L155.88 509.88L155.88 526.5L155.4 526.5z" stroke="none" fill="#000000" fill-rule="nonzero" /><path id="215" transform="matrix(1 0 0 -1 0 729)" d="M56.94 509.4L155.3999 509.4L155.3999 509.88L56.94 509.88z" stroke="none" fill="#000000" fill-rule="nonzero" /><path id="216" transform="matrix(1 0 0 -1 0 729)" d="M155.4 509.4L155.88 509.4L155.88 509.88L155.4 509.88z" stroke="none" fill="#000000" fill-rule="nonzero" /><path id="217" transform="matrix(1 0 0 -1 0 729)" d="M155.88 509.4L458.58 509.4L458.58 509.88L155.88 509.88z" stroke="none" fill="#000000" fill-rule="nonzero" /><path id="218" transform="matrix(1 0 0 -1 0 729)" d="M155.4 492.78L155.88 492.78L155.88 509.4L155.4 509.4z" stroke="none" fill="#000000" fill-rule="nonzero" /><path id="231" transform="matrix(1 0 0 -1 0 729)" d="M56.94 492.3L155.3999 492.3L155.3999 492.78L56.94 492.78z" stroke="none" fill="#000000" fill-rule="nonzero" /><path id="232" transform="matrix(1 0 0 -1 0 729)" d="M155.4 492.3L155.88 492.3L155.88 492.78L155.4 492.78z" stroke="none" fill="#000000" fill-rule="nonzero" /><path id="233" transform="matrix(1 0 0 -1 0 729)" d="M155.88 492.3L458.58 492.3L458.58 492.78L155.88 492.78z" stroke="none" fill="#000000" fill-rule="nonzero" /><path id="234" transform="matrix(1 0 0 -1 0 729)" d="M155.4 475.68L155.88 475.68L155.88 492.3L155.4 492.3z" stroke="none" fill="#000000" fill-rule="nonzero" /><path id="250" transform="matrix(1 0 0 -1 0 729)" d="M56.94 475.2L155.3999 475.2L155.3999 475.68L56.94 475.68z" stroke="none" fill="#000000" fill-rule="nonzero" /><path id="251" transform="matrix(1 0 0 -1 0 729)" d="M155.4 475.2L155.88 475.2L155.88 475.68L155.4 475.68z" stroke="none" fill="#000000" fill-rule="nonzero" /><path id="252" transform="matrix(1 0 0 -1 0 729)" d="M155.88 475.2L458.58 475.2L458.58 475.68L155.88 475.68z" stroke="none" fill="#000000" fill-rule="nonzero" /><path id="253" transform="matrix(1 0 0 -1 0 729)" d="M155.4 458.58L155.88 458.58L155.88 475.2L155.4 475.2z" stroke="none" fill="#000000" fill-rule="nonzero" /><path id="268" transform="matrix(1 0 0 -1 0 729)" d="M56.94 458.1L155.3999 458.1L155.3999 458.58L56.94 458.58z" stroke="none" fill="#000000" fill-rule="nonzero" /><path id="269" transform="matrix(1 0 0 -1 0 729)" d="M155.4 458.1L155.88 458.1L155.88 458.58L155.4 458.58z" stroke="none" fill="#000000" fill-rule="nonzero" /><path id="270" transform="matrix(1 0 0 -1 0 729)" d="M155.88 458.1L458.58 458.1L458.58 458.58L155.88 458.58z" stroke="none" fill="#000000" fill-rule="nonzero" /><path id="271" transform="matrix(1 0 0 -1 0 729)" d="M56.22 440.46L155.4 440.46L155.4 441.42L56.22 441.42z" stroke="none" fill="#000000" fill-rule="nonzero" /><path id="272" transform="matrix(1 0 0 -1 0 729)" d="M155.4 441.42L155.88 441.42L155.88 458.1L155.4 458.1z" stroke="none" fill="#000000" fill-rule="nonzero" /><path id="273" transform="matrix(1 0 0 -1 0 729)" d="M155.4 440.46L156.36 440.46L156.36 441.42L155.4 441.42z" stroke="none" fill="#000000" fill-rule="nonzero" /><path id="274" transform="matrix(1 0 0 -1 0 729)" d="M156.36 440.46L458.94 440.46L458.94 441.42L156.36 441.42z" stroke="none" fill="#000000" fill-rule="nonzero" /><path id="634" transform="matrix(1 0 0 -1 0 729)" d="M77.94 179.4L98.58 179.4L98.58 194.7L77.94 194.7z" stroke="none" fill="#FFFFFF" fill-rule="nonzero" /></g></g></svg>