<svg xmlns="http://www.w3.org/2000/svg" xmlns:xlink="http://www.w3.org/1999/xlink" id="body_2" preserveAspectRatio="xMinYMin meet" viewBox="0 0 688 972"><defs><clipPath id="1"><path id="" clip-rule="evenodd" d="M0 729L0 0L0 0L516 0L516 0L516 729L516 729L0 729z" /></clipPath></defs><g transform="matrix(1.333333 0 0 1.333333 0 0)"><g clip-path="url(#1)"><path id="14" transform="matrix(1 0 0 -1 0 729)" d="M56.7 647.28L236.34 647.28L236.34 648L56.7 648z" stroke="none" fill="#000000" fill-rule="nonzero" /><path id="15" transform="matrix(1 0 0 -1 0 729)" d="M56.7 645.84L236.34 645.84L236.34 646.56L56.7 646.56z" stroke="none" fill="#000000" fill-rule="nonzero" /><g transform="matrix(0.3273846 0 0 0.3266667 194.1 614.22)"><g transform="matrix(1 0 0 1 0 0)"><image x="0" y="0" xlink:href="img_04.png" width="390" height="54" /></g></g></g></g></svg>