<svg xmlns="http://www.w3.org/2000/svg" xmlns:xlink="http://www.w3.org/1999/xlink" id="body_9" preserveAspectRatio="xMinYMin meet" viewBox="0 0 688 972"><defs><clipPath id="1"><path id="" clip-rule="evenodd" d="M0 729L0 0L0 0L516 0L516 0L516 729L516 729L0 729z" /></clipPath></defs><g transform="matrix(1.333333 0 0 1.333333 0 0)"><g clip-path="url(#1)"><path id="14" transform="matrix(1 0 0 -1 0 729)" d="M55.2 685.98L460.74 685.98L460.74 686.46L55.2 686.46z" stroke="none" fill="#000000" fill-rule="nonzero" /><path id="15" transform="matrix(1 0 0 -1 0 729)" d="M55.2 686.94L460.74 686.94L460.74 687.42L55.2 687.42z" stroke="none" fill="#000000" fill-rule="nonzero" /><path id="91" transform="matrix(1 0 0 -1 0 729)" d="M243.06 565.8L274.02 565.8L274.02 579.42L243.06 579.42z" stroke="none" fill="#FFFFFF" fill-rule="nonzero" /><path id="129" transform="matrix(1 0 0 -1 0 729)" d="M56.7 548.88L77.34 548.88L77.34 562.5L56.7 562.5z" stroke="none" fill="#FFFFFF" fill-rule="nonzero" /><path id="130" transform="matrix(1 0 0 -1 0 729)" d="M211.5 548.88L221.88 548.88L221.88 562.5L211.5 562.5z" stroke="none" fill="#FFFFFF" fill-rule="nonzero" /><path id="147" transform="matrix(1 0 0 -1 0 729)" d="M77.94 531.9L181.14 531.9L181.14 545.52L77.94 545.52z" stroke="none" fill="#FFFFFF" fill-rule="nonzero" /><path id="148" transform="matrix(1 0 0 -1 0 729)" d="M222.42 531.9L346.32 531.9L346.32 545.52L222.42 545.52z" stroke="none" fill="#FFFFFF" fill-rule="nonzero" /><path id="435" transform="matrix(1 0 0 -1 0 729)" d="M77.94 362.4L325.02 362.4L325.02 376.02L77.94 376.02z" stroke="none" fill="#FFFFFF" fill-rule="nonzero" /><path id="436" transform="matrix(1 0 0 -1 0 729)" d="M438.54 362.4L459.24 362.4L459.24 376.02L438.54 376.02z" stroke="none" fill="#FFFFFF" fill-rule="nonzero" /><path id="474" transform="matrix(1 0 0 -1 0 729)" d="M56.7 345.48L87.66 345.48L87.66 359.1L56.7 359.1z" stroke="none" fill="#FFFFFF" fill-rule="nonzero" /><path id="475" transform="matrix(1 0 0 -1 0 729)" d="M294.06 345.48L325.02 345.48L325.02 359.1L294.06 359.1z" stroke="none" fill="#FFFFFF" fill-rule="nonzero" /><path id="476" transform="matrix(1 0 0 -1 0 729)" d="M417.9 345.48L448.92 345.48L448.92 359.1L417.9 359.1z" stroke="none" fill="#FFFFFF" fill-rule="nonzero" /></g></g></svg>