<svg xmlns="http://www.w3.org/2000/svg" xmlns:xlink="http://www.w3.org/1999/xlink" id="body_26" preserveAspectRatio="xMinYMin meet" viewBox="0 0 688 972"><defs><clipPath id="1"><path id="" clip-rule="evenodd" d="M0 729L0 0L0 0L516 0L516 0L516 729L516 729L0 729z" /></clipPath><clipPath id="2"><path id="" clip-rule="evenodd" d="M83.58 40.85999L90.78 40.85999L90.78 40.85999L90.78 30.65997L90.78 30.65997L83.58 30.65997z" /></clipPath></defs><g transform="matrix(1.333333 0 0 1.333333 0 0)"><g clip-path="url(#1)"><path id="11" transform="matrix(1 0 0 -1 0 729)" d="M55.2 685.98L460.74 685.98L460.74 686.46L55.2 686.46z" stroke="none" fill="#000000" fill-rule="nonzero" /><path id="12" transform="matrix(1 0 0 -1 0 729)" d="M55.2 686.94L460.74 686.94L460.74 687.42L55.2 687.42z" stroke="none" fill="#000000" fill-rule="nonzero" /><g clip-path="url(#2)"></g><path id="26" transform="matrix(1 0 0 -1 0 729)" d="M59.04 653.94L141.48 653.94L141.48 654.9L59.04 654.9z" stroke="none" fill="#000000" fill-rule="nonzero" /><path id="27" transform="matrix(1 0 0 -1 0 729)" d="M141.48 653.88L141.96 653.88L141.96 653.94L141.48 653.94z" stroke="none" fill="#000000" fill-rule="nonzero" /><path id="28" transform="matrix(1 0 0 -1 0 729)" d="M141.48 653.94L142.44 653.94L142.44 654.9L141.48 654.9z" stroke="none" fill="#000000" fill-rule="nonzero" /><path id="29" transform="matrix(1 0 0 -1 0 729)" d="M142.44 653.94L456.84 653.94L456.84 654.9L142.44 654.9z" stroke="none" fill="#000000" fill-rule="nonzero" /><path id="30" transform="matrix(1 0 0 -1 0 729)" d="M141.48 637.26L141.96 637.26L141.96 653.88L141.48 653.88z" stroke="none" fill="#000000" fill-rule="nonzero" /><path id="48" transform="matrix(1 0 0 -1 0 729)" d="M141.48 636.78L141.96 636.78L141.96 637.26L141.48 637.26z" stroke="none" fill="#000000" fill-rule="nonzero" /><path id="49" transform="matrix(1 0 0 -1 0 729)" d="M141.96 636.78L179.4 636.78L179.4 637.26L141.96 637.26z" stroke="none" fill="#000000" fill-rule="nonzero" /><path id="50" transform="matrix(1 0 0 -1 0 729)" d="M179.4 636.78L179.88 636.78L179.88 637.26L179.4 637.26z" stroke="none" fill="#000000" fill-rule="nonzero" /><path id="51" transform="matrix(1 0 0 -1 0 729)" d="M179.88 636.78L217.38 636.78L217.38 637.26L179.88 637.26z" stroke="none" fill="#000000" fill-rule="nonzero" /><path id="52" transform="matrix(1 0 0 -1 0 729)" d="M217.38 636.78L217.86 636.78L217.86 637.26L217.38 637.26z" stroke="none" fill="#000000" fill-rule="nonzero" /><path id="53" transform="matrix(1 0 0 -1 0 729)" d="M217.86 636.78L255.24 636.78L255.24 637.26L217.86 637.26z" stroke="none" fill="#000000" fill-rule="nonzero" /><path id="54" transform="matrix(1 0 0 -1 0 729)" d="M255.24 636.78L255.72 636.78L255.72 637.26L255.24 637.26z" stroke="none" fill="#000000" fill-rule="nonzero" /><path id="55" transform="matrix(1 0 0 -1 0 729)" d="M255.72 636.78L293.16 636.78L293.16 637.26L255.72 637.26z" stroke="none" fill="#000000" fill-rule="nonzero" /><path id="56" transform="matrix(1 0 0 -1 0 729)" d="M293.16 636.78L293.64 636.78L293.64 637.26L293.16 637.26z" stroke="none" fill="#000000" fill-rule="nonzero" /><path id="57" transform="matrix(1 0 0 -1 0 729)" d="M293.64 636.78L331.08 636.78L331.08 637.26L293.64 637.26z" stroke="none" fill="#000000" fill-rule="nonzero" /><path id="58" transform="matrix(1 0 0 -1 0 729)" d="M331.08 636.78L331.56 636.78L331.56 637.26L331.08 637.26z" stroke="none" fill="#000000" fill-rule="nonzero" /><path id="59" transform="matrix(1 0 0 -1 0 729)" d="M331.56 636.78L368.94 636.78L368.94 637.26L331.56 637.26z" stroke="none" fill="#000000" fill-rule="nonzero" /><path id="60" transform="matrix(1 0 0 -1 0 729)" d="M368.94 636.78L369.42 636.78L369.42 637.26L368.94 637.26z" stroke="none" fill="#000000" fill-rule="nonzero" /><path id="61" transform="matrix(1 0 0 -1 0 729)" d="M369.42 636.78L406.86 636.78L406.86 637.26L369.42 637.26z" stroke="none" fill="#000000" fill-rule="nonzero" /><path id="62" transform="matrix(1 0 0 -1 0 729)" d="M406.86 636.78L407.34 636.78L407.34 637.26L406.86 637.26z" stroke="none" fill="#000000" fill-rule="nonzero" /><path id="63" transform="matrix(1 0 0 -1 0 729)" d="M407.34 636.78L456.84 636.78L456.84 637.26L407.34 637.26z" stroke="none" fill="#000000" fill-rule="nonzero" /><path id="64" transform="matrix(1 0 0 -1 0 729)" d="M141.48 620.16L141.96 620.16L141.96 636.78L141.48 636.78z" stroke="none" fill="#000000" fill-rule="nonzero" /><path id="65" transform="matrix(1 0 0 -1 0 729)" d="M179.4 620.16L179.88 620.16L179.88 636.78L179.4 636.78z" stroke="none" fill="#000000" fill-rule="nonzero" /><path id="66" transform="matrix(1 0 0 -1 0 729)" d="M217.38 620.16L217.86 620.16L217.86 636.78L217.38 636.78z" stroke="none" fill="#000000" fill-rule="nonzero" /><path id="67" transform="matrix(1 0 0 -1 0 729)" d="M255.24 620.16L255.72 620.16L255.72 636.78L255.24 636.78z" stroke="none" fill="#000000" fill-rule="nonzero" /><path id="68" transform="matrix(1 0 0 -1 0 729)" d="M293.16 620.16L293.64 620.16L293.64 636.78L293.16 636.78z" stroke="none" fill="#000000" fill-rule="nonzero" /><path id="69" transform="matrix(1 0 0 -1 0 729)" d="M331.08 620.16L331.56 620.16L331.56 636.78L331.08 636.78z" stroke="none" fill="#000000" fill-rule="nonzero" /><path id="70" transform="matrix(1 0 0 -1 0 729)" d="M368.94 620.16L369.42 620.16L369.42 636.78L368.94 636.78z" stroke="none" fill="#000000" fill-rule="nonzero" /><path id="71" transform="matrix(1 0 0 -1 0 729)" d="M406.86 620.16L407.34 620.16L407.34 636.78L406.86 636.78z" stroke="none" fill="#000000" fill-rule="nonzero" /><path id="221" transform="matrix(1 0 0 -1 0 729)" d="M58.68 619.68L59.04 619.68L59.04 620.16L58.68 620.16z" stroke="none" fill="#000000" fill-rule="nonzero" /><path id="222" transform="matrix(1 0 0 -1 0 729)" d="M59.04 619.68L59.52 619.68L59.52 620.16L59.04 620.16z" stroke="none" fill="#000000" fill-rule="nonzero" /><path id="223" transform="matrix(1 0 0 -1 0 729)" d="M59.52 619.68L141.4799 619.68L141.4799 620.16L59.52 620.16z" stroke="none" fill="#000000" fill-rule="nonzero" /><path id="224" transform="matrix(1 0 0 -1 0 729)" d="M141.48 619.68L141.96 619.68L141.96 620.16L141.48 620.16z" stroke="none" fill="#000000" fill-rule="nonzero" /><path id="225" transform="matrix(1 0 0 -1 0 729)" d="M141.96 619.68L179.4 619.68L179.4 620.16L141.96 620.16z" stroke="none" fill="#000000" fill-rule="nonzero" /><path id="226" transform="matrix(1 0 0 -1 0 729)" d="M179.4 619.68L179.88 619.68L179.88 620.16L179.4 620.16z" stroke="none" fill="#000000" fill-rule="nonzero" /><path id="227" transform="matrix(1 0 0 -1 0 729)" d="M179.88 619.68L217.38 619.68L217.38 620.16L179.88 620.16z" stroke="none" fill="#000000" fill-rule="nonzero" /><path id="228" transform="matrix(1 0 0 -1 0 729)" d="M217.38 619.68L217.86 619.68L217.86 620.16L217.38 620.16z" stroke="none" fill="#000000" fill-rule="nonzero" /><path id="229" transform="matrix(1 0 0 -1 0 729)" d="M217.86 619.68L255.24 619.68L255.24 620.16L217.86 620.16z" stroke="none" fill="#000000" fill-rule="nonzero" /><path id="230" transform="matrix(1 0 0 -1 0 729)" d="M255.24 619.68L255.72 619.68L255.72 620.16L255.24 620.16z" stroke="none" fill="#000000" fill-rule="nonzero" /><path id="231" transform="matrix(1 0 0 -1 0 729)" d="M255.72 619.68L293.16 619.68L293.16 620.16L255.72 620.16z" stroke="none" fill="#000000" fill-rule="nonzero" /><path id="232" transform="matrix(1 0 0 -1 0 729)" d="M293.16 619.68L293.64 619.68L293.64 620.16L293.16 620.16z" stroke="none" fill="#000000" fill-rule="nonzero" /><path id="233" transform="matrix(1 0 0 -1 0 729)" d="M293.64 619.68L331.08 619.68L331.08 620.16L293.64 620.16z" stroke="none" fill="#000000" fill-rule="nonzero" /><path id="234" transform="matrix(1 0 0 -1 0 729)" d="M331.08 619.68L331.56 619.68L331.56 620.16L331.08 620.16z" stroke="none" fill="#000000" fill-rule="nonzero" /><path id="235" transform="matrix(1 0 0 -1 0 729)" d="M331.56 619.68L368.94 619.68L368.94 620.16L331.56 620.16z" stroke="none" fill="#000000" fill-rule="nonzero" /><path id="236" transform="matrix(1 0 0 -1 0 729)" d="M368.94 619.68L369.42 619.68L369.42 620.16L368.94 620.16z" stroke="none" fill="#000000" fill-rule="nonzero" /><path id="237" transform="matrix(1 0 0 -1 0 729)" d="M369.42 619.68L406.86 619.68L406.86 620.16L369.42 620.16z" stroke="none" fill="#000000" fill-rule="nonzero" /><path id="238" transform="matrix(1 0 0 -1 0 729)" d="M406.86 619.68L407.34 619.68L407.34 620.16L406.86 620.16z" stroke="none" fill="#000000" fill-rule="nonzero" /><path id="239" transform="matrix(1 0 0 -1 0 729)" d="M407.34 619.68L456.84 619.68L456.84 620.16L407.34 620.16z" stroke="none" fill="#000000" fill-rule="nonzero" /><path id="240" transform="matrix(1 0 0 -1 0 729)" d="M57.96 452.64L141.48 452.64L141.48 453.6L57.96 453.6z" stroke="none" fill="#000000" fill-rule="nonzero" /><path id="241" transform="matrix(1 0 0 -1 0 729)" d="M141.48 453.6L141.96 453.6L141.96 619.68L141.48 619.68z" stroke="none" fill="#000000" fill-rule="nonzero" /><path id="242" transform="matrix(1 0 0 -1 0 729)" d="M141.48 452.64L142.44 452.64L142.44 453.6L141.48 453.6z" stroke="none" fill="#000000" fill-rule="nonzero" /><path id="243" transform="matrix(1 0 0 -1 0 729)" d="M142.44 452.64L179.4 452.64L179.4 453.6L142.44 453.6z" stroke="none" fill="#000000" fill-rule="nonzero" /><path id="244" transform="matrix(1 0 0 -1 0 729)" d="M179.4 453.6L179.88 453.6L179.88 619.68L179.4 619.68z" stroke="none" fill="#000000" fill-rule="nonzero" /><path id="245" transform="matrix(1 0 0 -1 0 729)" d="M179.4 452.64L180.36 452.64L180.36 453.6L179.4 453.6z" stroke="none" fill="#000000" fill-rule="nonzero" /><path id="246" transform="matrix(1 0 0 -1 0 729)" d="M180.36 452.64L217.38 452.64L217.38 453.6L180.36 453.6z" stroke="none" fill="#000000" fill-rule="nonzero" /><path id="247" transform="matrix(1 0 0 -1 0 729)" d="M217.38 453.6L217.86 453.6L217.86 619.68L217.38 619.68z" stroke="none" fill="#000000" fill-rule="nonzero" /><path id="248" transform="matrix(1 0 0 -1 0 729)" d="M217.38 452.64L218.34 452.64L218.34 453.6L217.38 453.6z" stroke="none" fill="#000000" fill-rule="nonzero" /><path id="249" transform="matrix(1 0 0 -1 0 729)" d="M218.34 452.64L255.24 452.64L255.24 453.6L218.34 453.6z" stroke="none" fill="#000000" fill-rule="nonzero" /><path id="250" transform="matrix(1 0 0 -1 0 729)" d="M255.24 453.6L255.72 453.6L255.72 619.68L255.24 619.68z" stroke="none" fill="#000000" fill-rule="nonzero" /><path id="251" transform="matrix(1 0 0 -1 0 729)" d="M255.24 452.64L256.2 452.64L256.2 453.6L255.24 453.6z" stroke="none" fill="#000000" fill-rule="nonzero" /><path id="252" transform="matrix(1 0 0 -1 0 729)" d="M256.2 452.64L293.16 452.64L293.16 453.6L256.2 453.6z" stroke="none" fill="#000000" fill-rule="nonzero" /><path id="253" transform="matrix(1 0 0 -1 0 729)" d="M293.16 453.6L293.64 453.6L293.64 619.68L293.16 619.68z" stroke="none" fill="#000000" fill-rule="nonzero" /><path id="254" transform="matrix(1 0 0 -1 0 729)" d="M293.16 452.64L294.12 452.64L294.12 453.6L293.16 453.6z" stroke="none" fill="#000000" fill-rule="nonzero" /><path id="255" transform="matrix(1 0 0 -1 0 729)" d="M294.12 452.64L331.08 452.64L331.08 453.6L294.12 453.6z" stroke="none" fill="#000000" fill-rule="nonzero" /><path id="256" transform="matrix(1 0 0 -1 0 729)" d="M331.08 453.6L331.56 453.6L331.56 619.68L331.08 619.68z" stroke="none" fill="#000000" fill-rule="nonzero" /><path id="257" transform="matrix(1 0 0 -1 0 729)" d="M331.08 452.64L332.04 452.64L332.04 453.6L331.08 453.6z" stroke="none" fill="#000000" fill-rule="nonzero" /><path id="258" transform="matrix(1 0 0 -1 0 729)" d="M332.04 452.64L368.94 452.64L368.94 453.6L332.04 453.6z" stroke="none" fill="#000000" fill-rule="nonzero" /><path id="259" transform="matrix(1 0 0 -1 0 729)" d="M368.94 453.6L369.42 453.6L369.42 619.68L368.94 619.68z" stroke="none" fill="#000000" fill-rule="nonzero" /><path id="260" transform="matrix(1 0 0 -1 0 729)" d="M368.94 452.64L369.9 452.64L369.9 453.6L368.94 453.6z" stroke="none" fill="#000000" fill-rule="nonzero" /><path id="261" transform="matrix(1 0 0 -1 0 729)" d="M369.9 452.64L406.86 452.64L406.86 453.6L369.9 453.6z" stroke="none" fill="#000000" fill-rule="nonzero" /><path id="262" transform="matrix(1 0 0 -1 0 729)" d="M406.86 453.6L407.34 453.6L407.34 619.68L406.86 619.68z" stroke="none" fill="#000000" fill-rule="nonzero" /><path id="263" transform="matrix(1 0 0 -1 0 729)" d="M406.86 452.64L407.82 452.64L407.82 453.6L406.86 453.6z" stroke="none" fill="#000000" fill-rule="nonzero" /><path id="264" transform="matrix(1 0 0 -1 0 729)" d="M407.82 452.64L457.2 452.64L457.2 453.6L407.82 453.6z" stroke="none" fill="#000000" fill-rule="nonzero" /></g></g></svg>