<svg xmlns="http://www.w3.org/2000/svg" xmlns:xlink="http://www.w3.org/1999/xlink" id="body_27" preserveAspectRatio="xMinYMin meet" viewBox="0 0 688 972"><defs><clipPath id="1"><path id="" clip-rule="evenodd" d="M0 729L0 0L0 0L516 0L516 0L516 729L516 729L0 729z" /></clipPath><clipPath id="2"><path id="" clip-rule="evenodd" d="M452.16 40.85999L459.3 40.85999L459.3 40.85999L459.3 30.65997L459.3 30.65997L452.16 30.65997z" /></clipPath><clipPath id="3"><path id="" clip-rule="evenodd" d="M168.12 301.62L347.4 301.62L347.4 301.62L347.4 197.76L347.4 197.76L168.12 197.76z" /></clipPath><clipPath id="4"><path id="" clip-rule="evenodd" d="M257.76 240.78L260.82 240.78L260.82 240.78L260.82 231.6L260.82 231.6L257.76 231.6z" /></clipPath><clipPath id="5"><path id="" clip-rule="evenodd" d="M257.76 289.86L260.82 289.86L260.82 289.86L260.82 280.68L260.82 280.68L257.76 280.68z" /></clipPath><clipPath id="6"><path id="" clip-rule="evenodd" d="M283.26 219.24L285.3 219.24L285.3 219.24L285.3 210.06L285.3 210.06L283.26 210.06z" /></clipPath><clipPath id="7"><path id="" clip-rule="evenodd" d="M321.9 225.18L325.26 225.18L325.26 225.18L325.26 216L325.26 216L321.9 216z" /></clipPath><clipPath id="8"><path id="" clip-rule="evenodd" d="M341.46 243.06L348.06 243.06L348.06 243.06L348.06 233.88L348.06 233.88L341.46 233.88z" /></clipPath><clipPath id="9"><path id="" clip-rule="evenodd" d="M341.46 255.72L348.06 255.72L348.06 255.72L348.06 246.54L348.06 246.54L341.46 246.54z" /></clipPath><clipPath id="10"><path id="" clip-rule="evenodd" d="M341.46 268.32L348.06 268.32L348.06 268.32L348.06 259.14L348.06 259.14L341.46 259.14z" /></clipPath><clipPath id="11"><path id="" clip-rule="evenodd" d="M300.66 253.62L304.02 253.62L304.02 253.62L304.02 244.44L304.02 244.44L300.66 244.44z" /></clipPath><clipPath id="12"><path id="" clip-rule="evenodd" d="M298.26 285.9L304.86 285.9L304.86 285.9L304.86 276.72L304.86 276.72L298.26 276.72z" /></clipPath><clipPath id="13"><path id="" clip-rule="evenodd" d="M298.26 297.54L304.86 297.54L304.86 297.54L304.86 288.36L304.86 288.36L298.26 288.36z" /></clipPath></defs><g transform="matrix(1.333333 0 0 1.333333 0 0)"><g clip-path="url(#1)"><path id="14" transform="matrix(1 0 0 -1 0 729)" d="M55.2 685.98L460.74 685.98L460.74 686.46L55.2 686.46z" stroke="none" fill="#000000" fill-rule="nonzero" /><path id="15" transform="matrix(1 0 0 -1 0 729)" d="M55.2 686.94L460.74 686.94L460.74 687.42L55.2 687.42z" stroke="none" fill="#000000" fill-rule="nonzero" /><g clip-path="url(#2)"></g><g clip-path="url(#3)"><g transform="matrix(0.56025 0 0 0.5596774 168.12 197.52)"><g transform="matrix(1 0 0 1 0 0)"><image x="0" y="0" xlink:href="img_32.png" width="320" height="186" /></g></g></g><path id="190" transform="matrix(1 0 0 -1 0 729)" d="M169.56 471.84L216.42 471.84L216.42 485.82L169.56 485.82z" stroke="none" fill="#FFFFFF" fill-rule="nonzero" /><path id="196" transform="matrix(1 0 0 -1 0 729)" d="M222.36 485.94L260.82 485.94L260.82 499.98L222.36 499.98z" stroke="none" fill="#FFFFFF" fill-rule="nonzero" /><g clip-path="url(#4)"></g><path id="201" transform="matrix(1 0 0 -1 0 729)" d="M222.36 436.74L260.82 436.74L260.82 450.78L222.36 450.78z" stroke="none" fill="#FFFFFF" fill-rule="nonzero" /><g clip-path="url(#5)"></g><path id="206" transform="matrix(1 0 0 -1 0 729)" d="M265.02 507.54L285.3 507.54L285.3 521.52L265.02 521.52z" stroke="none" fill="#FFFFFF" fill-rule="nonzero" /><g clip-path="url(#6)"></g><path id="209" transform="matrix(1 0 0 -1 0 729)" d="M289.5 503.64L325.26 503.64L325.26 526.8L289.5 526.8z" stroke="none" fill="#FFFFFF" fill-rule="nonzero" /><g clip-path="url(#7)"></g><path id="217" transform="matrix(1 0 0 -1 0 729)" d="M309.06 460.62L348.06 460.62L348.06 497.94L309.06 497.94z" stroke="none" fill="#FFFFFF" fill-rule="nonzero" /><g clip-path="url(#8)"></g><g clip-path="url(#9)"></g><g clip-path="url(#10)"></g><path id="230" transform="matrix(1 0 0 -1 0 729)" d="M265.02 473.22L304.02 473.22L304.02 487.26L265.02 487.26z" stroke="none" fill="#FFFFFF" fill-rule="nonzero" /><g clip-path="url(#11)"></g><path id="235" transform="matrix(1 0 0 -1 0 729)" d="M265.86 430.2L304.86 430.2L304.86 454.4399L265.86 454.4399z" stroke="none" fill="#FFFFFF" fill-rule="nonzero" /><g clip-path="url(#12)"></g><g clip-path="url(#13)"></g><g transform="matrix(0.4795706 0 0 0.4785185 123.9 538.98)"><g transform="matrix(1 0 0 1 0 0)"><image x="0" y="0" xlink:href="img_33.png" width="559" height="81" /></g></g><g transform="matrix(0.4795706 0 0 0.4785185 123.9 577.74)"><g transform="matrix(1 0 0 1 0 0)"><image x="0" y="0" xlink:href="img_34.png" width="559" height="81" /></g></g><g transform="matrix(0.4795706 0 0 0.477037 123.9 616.5)"><g transform="matrix(1 0 0 1 0 0)"><image x="0" y="0" xlink:href="img_35.png" width="559" height="81" /></g></g></g></g></svg>