<svg xmlns="http://www.w3.org/2000/svg" xmlns:xlink="http://www.w3.org/1999/xlink" id="body_37" preserveAspectRatio="xMinYMin meet" viewBox="0 0 688 972"><defs><clipPath id="1"><path id="" clip-rule="evenodd" d="M0 729L0 0L0 0L516 0L516 0L516 729L516 729L0 729z" /></clipPath><clipPath id="2"><path id="" clip-rule="evenodd" d="M452.16 40.85999L459.3 40.85999L459.3 40.85999L459.3 30.65997L459.3 30.65997L452.16 30.65997z" /></clipPath><clipPath id="3"><path id="" clip-rule="evenodd" d="M81.66 390.42L234.66 390.42L234.66 390.42L234.66 333.42L234.66 333.42L81.66 333.42z" /></clipPath><clipPath id="4"><path id="" clip-rule="evenodd" d="M121.38 347.52L122.22 347.52L122.22 347.52L122.22 338.88L122.22 338.88L121.38 338.88z" /></clipPath><clipPath id="5"><path id="" clip-rule="evenodd" d="M117.54 357.6L122.22 357.6L122.22 357.6L122.22 348.96L122.22 348.96L117.54 348.96z" /></clipPath><clipPath id="6"><path id="" clip-rule="evenodd" d="M225.72 366.84L226.5 366.84L226.5 366.84L226.5 358.2L226.5 358.2L225.72 358.2z" /></clipPath><clipPath id="7"><path id="" clip-rule="evenodd" d="M178.26 361.26L179.88 361.26L179.88 361.26L179.88 352.62L179.88 352.62L178.26 352.62z" /></clipPath><clipPath id="8"><path id="" clip-rule="evenodd" d="M120.96 385.08L121.8 385.08L121.8 385.08L121.8 376.44L121.8 376.44L120.96 376.44z" /></clipPath><clipPath id="9"><path id="" clip-rule="evenodd" d="M234.06 366.84L234.72 366.84L234.72 366.84L234.72 358.2L234.72 358.2L234.06 358.2z" /></clipPath><clipPath id="10"><path id="" clip-rule="evenodd" d="M265.62 390.54L271.98 390.54L271.98 390.54L271.98 388.38L271.98 388.38L265.62 388.38z" /></clipPath><clipPath id="11"><path id="" clip-rule="evenodd" d="M265.62 390.54L434.34 390.54L434.34 390.54L434.34 339.42L434.34 339.42L265.62 339.42z" /></clipPath><clipPath id="12"><path id="" clip-rule="evenodd" d="M303.42 354.18L309.72 354.18L309.72 354.18L309.72 345.48L309.72 345.48L303.42 345.48z" /></clipPath><clipPath id="13"><path id="" clip-rule="evenodd" d="M369.96 358.74L372 358.74L372 358.74L372 350.04L372 350.04L369.96 350.04z" /></clipPath><clipPath id="14"><path id="" clip-rule="evenodd" d="M429.36 358.74L431.4 358.74L431.4 358.74L431.4 350.04L431.4 350.04L429.36 350.04z" /></clipPath><clipPath id="15"><path id="" clip-rule="evenodd" d="M399.9 384.84L401.94 384.84L401.94 384.84L401.94 376.14L401.94 376.14L399.9 376.14z" /></clipPath><clipPath id="16"><path id="" clip-rule="evenodd" d="M343.2 384.84L345.24 384.84L345.24 384.84L345.24 376.14L345.24 376.14L343.2 376.14z" /></clipPath></defs><g transform="matrix(1.333333 0 0 1.333333 0 0)"><g clip-path="url(#1)"><path id="14" transform="matrix(1 0 0 -1 0 729)" d="M55.2 685.98L460.74 685.98L460.74 686.46L55.2 686.46z" stroke="none" fill="#000000" fill-rule="nonzero" /><path id="15" transform="matrix(1 0 0 -1 0 729)" d="M55.2 686.94L460.74 686.94L460.74 687.42L55.2 687.42z" stroke="none" fill="#000000" fill-rule="nonzero" /><g clip-path="url(#2)"></g><g clip-path="url(#3)"><g transform="matrix(0.5083056 0 0 0.5054867 81.66 333.3)"><g transform="matrix(1 0 0 1 0 0)"><image x="0" y="0" xlink:href="img_47.png" width="301" height="113" /></g></g></g><path id="538" transform="matrix(1 0 0 -1 0 729)" d="M89.94 369.6L122.28 369.6L122.28 391.44L89.94 391.44z" stroke="none" fill="#FFFFFF" fill-rule="nonzero" /><g clip-path="url(#4)"></g><g clip-path="url(#5)"></g><path id="546" transform="matrix(1 0 0 -1 0 729)" d="M194.22 360.6L226.62 360.6L226.62 371.94L194.22 371.94z" stroke="none" fill="#FFFFFF" fill-rule="nonzero" /><g clip-path="url(#6)"></g><path id="551" transform="matrix(1 0 0 -1 0 729)" d="M146.04 366.18L179.94 366.18L179.94 377.52L146.04 377.52z" stroke="none" fill="#FFFFFF" fill-rule="nonzero" /><g clip-path="url(#7)"></g><path id="556" transform="matrix(1 0 0 -1 0 729)" d="M89.52 342.42L121.92 342.42L121.92 353.76L89.52 353.76z" stroke="none" fill="#FFFFFF" fill-rule="nonzero" /><g clip-path="url(#8)"></g><path id="561" transform="matrix(1 0 0 -1 0 729)" d="M234.06 360.6L234.72 360.6L234.72 371.94L234.06 371.94z" stroke="none" fill="#FFFFFF" fill-rule="nonzero" /><g clip-path="url(#9)"></g><g clip-path="url(#10)"></g><g clip-path="url(#11)"><g transform="matrix(0.4221 0 0 0.5073267 265.56 339.3)"><g transform="matrix(1 0 0 1 0 0)"><image x="0" y="0" xlink:href="img_48.png" width="400" height="101" /></g></g></g><path id="563" transform="matrix(1 0 0 -1 0 729)" d="M271.74 363.6L309.78 363.6L309.78 384.9L271.74 384.9z" stroke="none" fill="#FFFFFF" fill-rule="nonzero" /><g clip-path="url(#12)"></g><path id="571" transform="matrix(1 0 0 -1 0 729)" d="M342.6 369.24L372.06 369.24L372.06 380.16L342.6 380.16z" stroke="none" fill="#FFFFFF" fill-rule="nonzero" /><g clip-path="url(#13)"></g><path id="576" transform="matrix(1 0 0 -1 0 729)" d="M402 369.24L431.46 369.24L431.46 380.16L402 380.16z" stroke="none" fill="#FFFFFF" fill-rule="nonzero" /><g clip-path="url(#14)"></g><path id="581" transform="matrix(1 0 0 -1 0 729)" d="M372.6 343.08L402 343.08L402 354.1199L372.6 354.1199z" stroke="none" fill="#FFFFFF" fill-rule="nonzero" /><g clip-path="url(#15)"></g><path id="586" transform="matrix(1 0 0 -1 0 729)" d="M315.9 343.08L345.24 343.08L345.24 354.1199L315.9 354.1199z" stroke="none" fill="#FFFFFF" fill-rule="nonzero" /><g clip-path="url(#16)"></g></g></g></svg>