<svg xmlns="http://www.w3.org/2000/svg" xmlns:xlink="http://www.w3.org/1999/xlink" id="body_5" preserveAspectRatio="xMinYMin meet" viewBox="0 0 688 972"><defs><clipPath id="1"><path id="" clip-rule="evenodd" d="M0 729L0 0L0 0L516 0L516 0L516 729L516 729L0 729z" /></clipPath><clipPath id="2"><path id="" clip-rule="evenodd" d="M450.9 40.85999L459.3 40.85999L459.3 40.85999L459.3 30.65997L459.3 30.65997L450.9 30.65997z" /></clipPath></defs><g transform="matrix(1.333333 0 0 1.333333 0 0)"><g clip-path="url(#1)"><path id="3" transform="matrix(1 0 0 -1 0 729)" d="M55.2 685.98L460.74 685.98L460.74 686.46L55.2 686.46z" stroke="none" fill="#000000" fill-rule="nonzero" /><path id="4" transform="matrix(1 0 0 -1 0 729)" d="M55.2 686.94L460.74 686.94L460.74 687.42L55.2 687.42z" stroke="none" fill="#000000" fill-rule="nonzero" /><g clip-path="url(#2)"></g><path id="2556" transform="matrix(1 0 0 -1 0 729)" d="M257.58 53.16L258.36 53.16L258.36 671.8199L257.58 671.8199z" stroke="none" fill="#000000" fill-rule="nonzero" /></g></g></svg>